<?xml version="1.0" encoding="UTF-8" standalone="no"?>
<svg
   width="3164.4775"
   height="3492.2793"
   viewBox="0 0 3164.4775 3492.2793"
   fill="none"
   version="1.1"
   id="svg114"
   xmlns="http://www.w3.org/2000/svg"
   xmlns:svg="http://www.w3.org/2000/svg">
  <defs
     id="defs114" />
  <path
     fill-rule="evenodd"
     clip-rule="evenodd"
     d="m 2723.28,362.836 c -2.54,31.11 -12.76,54.54 -22.42,78.52 4.89,19.68 4.65,44.49 11.21,62.5 49.81,27.64 99.68,55.219 144.22,88.139 46.27,3.89 88.27,7.84 121.79,30.44 18.26,12.32 32.6,27.97 48.07,44.87 32.91,35.94 64.01,66.241 68.91,129.801 1.8,23.4 0.34,50.389 -1.61,75.319 -1.83,23.5 -2.67,47.391 -11.21,65.701 15.67,29.99 33.32,62.134 41.66,99.354 8.63,38.46 14.38,84.17 11.23,129.8 -3.04,43.81 -6.94,87.83 4.8,129.8 10.57,37.79 21.48,74.31 24.03,115.38 4.04,64.95 -16.36,125.68 -33.65,182.68 -8.38,27.64 -17.18,54.49 -27.23,80.12 -10.31,26.28 -25.35,50.82 -32.06,75.32 -3.68,13.45 -3.06,30.36 -6.41,41.66 -3.97,13.39 -16.98,24.9 -19.23,38.46 -2.89,17.48 1.77,45.92 3.21,65.71 1.82,25.1 5.67,54.83 0,73.71 -4.74,15.75 -19.56,27.26 -28.85,40.06 -9.59,13.23 -15.52,33.46 -32.04,38.46 -33.49,10.11 -56.64,-17.98 -76.93,-30.45 -16.36,129.46 -35.3,256.34 -86.53,350.94 3.96,53.08 -2.23,108.48 -9.61,157.04 -2.41,15.85 -3.25,32.43 -11.22,44.87 49.13,112.72 57.62,269.9 24.04,395.81 -15.65,58.67 -40.95,114.25 -57.69,173.07 -14.38,50.55 -26.76,106.74 -28.84,173.07 -0.3,9.46 -2.76,20.02 -1.61,27.24 1.77,11.04 13.41,22.11 22.44,33.65 8.52,10.9 17.27,22.59 24.03,30.45 14.15,16.43 50.55,38.88 49.68,59.29 -1.64,38.78 -81.8,16.44 -118.58,19.23 -25.03,1.89 -64.9,14.16 -94.54,4.8 -38.88,-12.27 -23.87,-64.14 -16.03,-105.76 12.92,-68.61 18.16,-147.03 20.83,-224.34 4.08,-118.15 -22.97,-195.79 -40.06,-286.85 -16.82,88.57 -44.1,170.11 -40.06,286.85 2.64,76.47 7.52,153.67 20.83,224.34 7.46,39.63 24.41,93.47 -16.03,105.76 -29.41,8.94 -65.11,-2.38 -92.94,-4.8 -33.51,-2.93 -116.43,19.25 -120.19,-17.63 -2.02,-20.02 38.78,-48.22 49.69,-60.89 7.53,-8.76 15.82,-19.96 24.03,-30.45 8.54,-10.92 20.56,-22.16 22.44,-32.05 2.1,-11.07 -0.82,-39.79 -1.6,-56.09 -0.9,-18.71 -3.83,-36.63 -6.42,-51.28 -12.28,-69.6 -29.61,-120.99 -51.28,-179.47 -10.59,-28.59 -19.18,-57.98 -27.23,-88.14 -17.15,-64.13 -24.12,-132.31 -20.84,-206.72 2.93,-66.85 20.13,-131.74 43.26,-187.48 -10.87,-28.17 -14.01,-60.68 -17.62,-96.15 -2.65,-26.12 -4.67,-52.54 -4.8,-80.13 -0.05,-8.32 2.67,-18.57 1.59,-25.64 -1.24,-8.19 -13.01,-27.97 -17.63,-38.45 -38.45,-87.45 -53.91,-200.29 -68.9,-312.49 -6.1,0.29 -11.68,6.84 -17.63,11.22 -11.68,8.62 -36.52,24.51 -59.29,17.63 -15.06,-4.55 -20.21,-21.83 -30.45,-36.86 -10.83,-15.9 -27.34,-24.85 -32.05,-43.26 -4.39,-17.22 -1.32,-46.45 0,-68.91 1.3,-21.98 7.79,-46.09 4.81,-67.3 -1.89,-13.52 -13.07,-24.05 -17.63,-36.86 -4.07,-11.49 -4.32,-28.95 -8.01,-43.27 -6.32,-24.54 -20.08,-50.37 -30.44,-76.92 -9.93,-25.42 -20.55,-51.08 -28.85,-78.52 -17.08,-56.47 -36.74,-116.68 -33.65,-181.07 1.97,-41.08 11.74,-80.26 22.44,-118.59 11.68,-41.86 11.32,-85.02 8.01,-129.8 -6.59,-89.13 14.25,-165.82 49.67,-227.554 -15.39,-74.28 -18.73,-170.411 11.22,-219.541 11.6,-19.03 30.57,-35.5 46.48,-52.88 19.07,-20.83 36.06,-42.529 60.88,-54.479 23.67,-11.39 50.29,-13.331 78.53,-17.631 9.11,-1.39 20.36,-0.91 28.84,-3.2 11.4,-3.09 22.55,-15.349 35.25,-24.039 33.44,-22.86 77.52,-44.14 110.58,-64.1 6.59,-17.44 5.95,-42.12 11.22,-60.89 -8.75,-24.92 -19.57,-47.74 -22.44,-78.52 -6.67,0.65 -16.21,2.2 -24.04,-3.21 -16.75,-11.57 -53.9,-116.71 -8.01,-133 -14.79,-69.79 6.91,-133.6205 40.06,-173.0705 30.51,-36.31 79.44,-59.5199597 145.82,-54.47996169 35.48,2.69000199 71.55,17.64996169 96.16,38.45996169 45.78,38.72 66.23,108.7005 56.08,187.4805 -1.16,5.44 7.18,5.9 11.22,11.22 16.23,21.42 8.85,61.25 -1.61,88.14 -9.71,24.97 -17.9,44.79 -43.27,36.85 z M 2566.25,2333.88 c -3.95,28.67 -8.83,58.73 -8.02,86.53 0.88,30.17 11.13,60.68 12.82,91.34 2.34,42.17 -6.21,80.08 -14.42,120.19 9.89,37.12 22.21,71.79 28.84,112.17 5.27,-1.37 3.98,-9.29 4.81,-12.82 8.19,-34.71 18.51,-67.47 27.24,-99.35 -8.22,-40.6 -17.06,-79.22 -14.42,-121.79 1.92,-30.89 12.25,-60.86 12.82,-91.34 0.52,-27.34 -4.38,-56.38 -8.01,-84.93 -11.05,-87.03 -15.89,-174.41 -20.83,-259.6 -1.23,90.4 -9.65,178.27 -20.83,259.6 z M 2854.7,1249.01 c 9.98,55.3 7.91,135.97 -3.22,182.68 19.51,39.38 38.03,75.68 41.67,126.59 1.57,21.88 -4.3,46.8 -1.61,65.7 1.64,11.43 11.6,27.14 17.64,41.67 5.92,14.29 12.9,29.44 16.02,44.87 6.97,34.58 1.59,64.95 -4.81,97.75 10.2,-9.26 24.96,-22.81 25.64,-35.26 2.5,-45.39 11.48,-93.69 11.22,-141.01 -0.31,-57.19 -20.44,-100.22 -27.25,-149.03 -12.81,-91.98 -0.67,-171.99 28.85,-237.17 -18.68,-39.01 -26.52,-88.85 -36.85,-136.21 -15.53,53.38 -43.39,94.43 -67.3,139.42 z m -639.39,-3.21 c 29.98,67.01 41.99,148.4 28.84,238.77 -5.74,39.43 -21.09,77.41 -25.64,118.58 -3.91,35.38 0.77,66.41 4.81,99.36 4.27,34.78 1.13,72.69 16.02,92.94 3.23,4.39 10.08,11.02 14.43,11.22 -5.4,-22.8 -8.21,-41.68 -8.02,-64.1 0.28,-32.35 9.9,-54.41 19.23,-76.92 6.32,-15.25 16.16,-31.08 17.63,-43.27 2.73,-22.73 -3.2,-44.99 -1.6,-65.7 3.89,-50.59 23.41,-86.42 41.66,-126.59 -11.55,-45.79 -12.9,-126.5 -3.21,-181.08 -24.9,-44.54 -50.58,-88.3 -68.9,-139.42 -7.06,50.09 -17.67,96.64 -35.25,136.21 z"
     fill="#808284"
     id="path1" />
  <path
     fill-rule="evenodd"
     clip-rule="evenodd"
     d="m 2692.84,338.805 c 9.31,2.69 16.08,-9.67 20.84,-16.03 15.22,-20.34 31.43,-47.33 38.45,-76.92 18.05,20.04 7.24,50.69 -1.6,73.72 -4.46,11.6 -8.05,30.06 -19.23,27.24 -12.05,-0.6 2.98,-18.76 -6.41,-22.43 -7.47,2.71 -7.58,12.24 -9.61,19.23 -5.51,18.87 -11.99,43.21 -17.63,64.09 -4.77,-6.45 1.03,-23.46 -9.61,-24.03 -7.54,6.68 -4.05,21.8 -3.21,32.04 0.92,11.3 1.99,22.41 3.21,33.66 2.42,22.52 1.94,50.17 11.21,64.1 6.51,9.78 31.03,19.69 44.87,27.24 44.47,24.25 93.98,55.5 133,78.52 8.86,1.8 3.74,-11.34 6.41,-8.01 26.03,3.53 57.47,7.3 80.12,19.23 13,6.84 26.02,20.73 38.47,33.65 12.22,12.68 25.23,25.28 35.25,36.85 24.3,28.09 38.78,61.25 41.66,100.96 2.58,35.39 -1.99,75.64 -6.41,112.17 -1.99,8.2 -2.22,-9.67 -11.21,-4.8 0.55,16.24 9.65,30.28 16.02,44.87 23.96,54.815 45.36,121.235 41.66,205.115 -1.06,24.18 -4.52,58.16 -3.19,88.14 1.47,33.73 13.55,61.41 20.82,92.94 7.33,31.72 12.93,66.63 11.22,100.95 -1.55,31.11 -9.61,64.06 -17.63,96.15 -15.17,60.75 -37.84,115.43 -59.29,168.26 -5.44,13.4 -10.39,27.67 -14.42,41.67 -4.4,15.28 -3.77,32.4 -9.62,46.47 -4.45,10.7 -15.84,19.37 -17.62,32.05 -2.11,14.97 0.14,34.69 1.6,52.88 1.35,16.87 2.52,33.89 3.21,49.67 0.62,14.31 3.45,29.68 -1.61,41.67 -4.77,11.32 -19.69,19.19 -28.84,33.65 -8.1,12.81 -10.01,29.59 -25.64,30.45 -26.06,1.43 -48.74,-22.58 -64.09,-36.86 2.4,-35.82 2.96,-79.62 4.8,-120.18 0.58,-12.7 -3.35,-27.88 0,-40.07 2.09,-7.61 13.3,-16.72 20.83,-25.64 9.53,-11.29 19.67,-19.98 22.44,-36.85 1.64,-9.98 -0.73,-19.47 0,-30.45 2.72,-41.59 13.97,-82.15 11.21,-123.39 -2.55,-38.09 -13.43,-75.25 -20.83,-112.17 -17,-84.91 -15.26,-160.48 12.82,-235.57 2.69,-7.67 3.58,11.8 11.22,9.62 4.62,-14.34 -4.66,-31.9 -9.62,-49.68 -11.91,-42.74 -21.27,-86.88 -28.84,-136.21 -1.41,-9.17 -5.22,-19.53 -4.81,-27.24 0.44,-8.1 5.55,-20.26 8.02,-30.44 2.57,-10.66 4.41,-21.22 6.41,-32.05 4.01,-21.835 6.57,-47.205 12.81,-64.105 3.55,-9.61 11.55,-17.76 14.43,-27.24 3.26,-10.77 2.12,-22.42 3.2,-33.66 0.96,-9.89 6.49,-21.3 0,-30.44 -9,2.56 -8.36,14.86 -9.61,20.83 -1.81,8.55 -2.33,17.33 -4.82,25.64 -4.59,15.42 -14.51,28.32 -19.22,41.66 -11.06,31.32 -11.08,69.135 -19.23,102.565 -15.59,63.88 -40.8,120.78 -68.91,173.07 -14.15,26.34 -30.14,52.55 -32.05,84.93 12.6,-0.22 11.81,-13.84 16.03,-22.44 4.6,22.48 6.18,54.1 4.8,81.73 -1.18,23.74 -4.02,47.12 -11.21,62.49 14.84,38.5 39.25,84.09 43.26,136.21 2.95,38.3 -1.49,75.91 -3.2,113.78 9.34,5.05 9.51,-11.46 11.21,-19.23 10.83,24.54 24.71,48.04 27.25,78.52 2.24,26.92 -6.22,54.14 -9.61,83.33 -5.04,43.39 0.46,82.75 -1.6,129.8 -3.72,84.45 -17.57,166.38 -33.66,241.97 -16.48,77.45 -37.26,148.78 -68.91,206.72 -2.88,7.79 12.82,5.21 9.62,8.01 2.51,48.53 -6.53,99.19 -12.82,144.22 -3.93,8.02 -4.61,-13.02 -12.82,-11.21 -5.79,9.2 1.95,19.35 4.81,27.24 22.09,61.07 41.24,141.39 44.86,221.14 4.2,92.31 -17.7,177.29 -46.47,256.39 -13.54,37.24 -26.98,75.21 -36.85,113.78 -10.46,40.83 -20.93,83.83 -24.04,126.59 -0.68,9.39 0.61,24.63 0,38.46 -0.58,13.18 -2.43,21.3 0,30.45 5.51,20.72 31.07,44.43 44.87,60.88 8.56,10.22 16.4,18.71 25.64,27.24 8.86,8.18 20.2,15.27 22.43,27.25 -6.5,7.07 -19.15,7.89 -28.84,8.01 -25.13,0.35 -55.31,-11.13 -78.52,-3.19 0.32,-7.18 6.7,-11.99 8.01,-20.85 3.35,-22.68 -11.64,-49.45 -19.23,-64.09 -8.35,15.59 8.71,42.35 3.21,64.09 -3.46,13.64 -16.95,15.07 -24.04,25.65 -32.82,-1.04 -64.12,6.18 -67.31,-24.03 -1.74,-16.58 6.87,-41.57 11.23,-64.11 11.99,-62 17.71,-134.95 20.82,-203.51 1.38,-30.16 1.24,-60.12 0,-88.13 -4.87,-110.86 -52.14,-204 -44.87,-312.48 2.43,-36.2 15.62,-70.96 24.05,-105.77 6.39,-26.42 10.91,-52 16.01,-80.12 1.48,-8.12 5.11,-18.21 0,-25.64 -9.95,2.32 -8.1,16.47 -11.21,25.64 -19.15,-56.89 0.65,-112.66 4.8,-169.86 0.58,-7.93 0.44,-16.13 0,-24.04 -2.5,-45.94 -10.2,-92.66 -16.02,-141.02 -13.96,-116.19 -15.47,-247.57 -12.82,-376.58 0.74,-4.5 7.54,1.77 12.82,4.81 22.29,12.8 49.77,20.61 91.35,17.63 67.76,-4.85 127.41,-41.28 136.2,-107.37 -9.05,-2.04 -9.76,8.23 -12.82,12.82 -8.36,12.55 -18.76,30.24 -30.45,41.67 -50.17,49.05 -188.15,55.64 -209.92,-16.03 -13.43,10.68 -18.15,24.55 -30.45,33.66 -44.32,32.83 -144.67,22.64 -185.88,-17.63 -7.73,-7.55 -14.53,-18.4 -20.83,-27.24 -6.7,-9.41 -10.16,-22.5 -20.84,-27.25 1.45,59.37 64.76,102.11 133.01,107.37 31.19,2.4 61.16,-0.02 86.53,-12.82 7.69,-3.88 14.28,-10.68 20.83,-12.82 2.93,131.52 0.99,259.46 -12.82,379.78 -5.47,47.74 -14.82,93.8 -17.62,139.42 -2.45,39.95 10.53,75.24 12.82,112.17 1.74,28.07 -4.03,54.19 -6.41,83.33 -5.73,-6.56 -2.66,-21.91 -11.22,-25.64 -8.11,5.88 -3,17.95 -1.6,25.64 4.75,26.13 9.48,53.06 16.02,80.12 8.3,34.31 21.47,68.91 24.04,104.15 7.9,108.58 -39.84,201.84 -44.87,312.48 -3.58,78.87 3.67,153.9 11.22,227.57 2.03,19.82 5.31,43.44 9.61,65.69 5.41,27.95 21.4,72.67 0,84.94 -13.73,7.87 -33.61,0.26 -54.48,3.2 -8.49,-8.99 -22.23,-12.17 -25.64,-25.65 -5.24,-20.68 9.35,-44.7 4.81,-64.09 -6.17,2.53 -9.4,13.19 -12.82,22.44 -6.5,17.55 -14.25,47.28 1.6,62.5 -34.5,-9.74 -78.04,12.37 -108.97,-3.21 -0.38,-13.49 13.73,-19.31 22.43,-27.24 17.73,-16.13 33.34,-35.4 49.69,-56.09 8.13,-10.29 20.48,-25.76 22.43,-36.86 2.1,-11.99 -0.62,-49.33 -1.61,-64.09 -2.91,-43.4 -13.42,-86.78 -24.03,-128.2 -9.85,-38.45 -23.4,-76.77 -36.85,-113.78 -28.65,-78.76 -50.55,-162.23 -46.48,-254.79 3.45,-78.62 21.86,-157.33 44.87,-221.14 2.88,-7.97 7.96,-17.59 6.41,-27.24 -8.65,-6.94 -9.41,14.67 -14.43,11.22 -5.72,-45.57 -15.4,-95.68 -12.81,-144.23 -4.93,-5.72 10.78,-1.08 9.61,-8.01 -30.1,-58.85 -52.53,-129.06 -68.9,-206.72 -15.89,-75.34 -29.82,-157.79 -33.65,-241.97 -2.02,-44.43 3.28,-85.64 -1.61,-129.8 -3.19,-28.88 -11.54,-56.38 -9.61,-83.33 2.2,-30.78 16.81,-53.85 25.64,-80.12 5.56,5.13 0.93,20.43 11.21,20.83 5.63,-11.45 1.26,-24.44 0,-36.85 -8.27,-81.75 11.75,-159.99 41.67,-213.13 -14.44,-37.73 -12.49,-98.44 -8.02,-145.83 6.71,6.11 4.39,21.27 16.04,22.44 4.84,-6.79 0.37,-16.03 -1.61,-22.44 -16.02,-51.7 -47.84,-91.47 -68.91,-142.62 -12.11,-29.41 -21.11,-61.26 -28.84,-92.94 -7.99,-32.74 -7.9,-67.835 -19.23,-100.965 -4.85,-14.16 -12.86,-27.6 -17.63,-43.26 -2.53,-8.29 -4.66,-15.82 -6.41,-24.04 -1.49,-7.02 -0.77,-17.01 -8.01,-22.43 -7.74,2.99 -4.35,18.62 -3.2,30.44 1.02,10.63 2.04,22.54 4.8,32.05 2.95,10.16 10.52,18.26 14.43,28.85 9.16,24.8 12.01,66.345 19.23,96.155 2.57,10.66 7.57,22.31 8.01,30.44 0.8,14.99 -6.84,39.37 -9.62,56.09 -6.4,38.54 -14.51,71.35 -24.03,105.76 -4.58,16.51 -11.15,33.21 -11.23,49.68 7.71,6.92 9.4,-12.44 12.82,-9.62 26.92,73.89 30.34,149.66 12.83,237.17 -7.25,36.17 -18.1,72.99 -20.83,110.57 -2.99,40.9 8.07,81.03 11.21,121.79 1.15,14.91 -0.49,29.98 3.2,41.66 7.42,23.44 24.88,34.45 40.07,52.88 0.73,54.28 1.58,108.45 4.81,160.25 -12.77,14.6 -44.04,46.7 -70.52,36.85 -7.85,-2.91 -12.92,-17.31 -19.23,-27.24 -11.88,-18.74 -28.87,-25.97 -32.04,-46.47 -1.47,-9.53 1.14,-18.88 1.6,-28.84 0.72,-15.83 1.85,-34.39 3.2,-51.28 1.58,-19.66 3.6,-41.37 0,-56.09 -2.61,-10.67 -11.62,-18.28 -16.02,-28.84 -6.11,-14.7 -5.07,-32.53 -9.62,-48.08 -11.8,-40.37 -32.23,-77.8 -48.07,-120.18 -10.2,-27.29 -18.21,-58.4 -25.64,-88.14 -7.9,-31.63 -15.9,-64.23 -17.62,-94.54 -1.99,-34.94 3.83,-70.59 11.21,-102.56 7.15,-30.98 19.14,-58.32 20.83,-91.34 2.53,-49.25 -4.63,-93.89 -1.6,-142.62 4.55,-73.17 31.5,-135.865 57.69,-195.505 -7.06,-7.56 -11.15,7.23 -12.82,4.81 -10.35,-67.18 -11.37,-142.48 16.02,-187.49 11.91,-19.57 27.2,-35.4 43.28,-52.88 14.91,-16.24 31.33,-34.63 51.27,-44.87 22.65,-11.63 48.1,-15.24 76.92,-19.23 6.37,-4.28 -1.77,7.92 6.41,8.01 27.92,-13.93 56,-32.87 89.74,-52.88 12.94,-7.68 27.5,-16.17 44.86,-25.64 11.78,-6.42 38.72,-17.07 44.88,-25.64 8.27,-11.53 9.28,-46.51 11.21,-64.1 1.27,-11.59 2.3,-24.11 3.21,-35.26 0.91,-11.19 2.96,-23.39 -1.6,-32.04 -11.49,-0.27 -8.24,14.19 -9.62,24.03 -11.77,-25.08 -13.98,-59.72 -27.24,-83.32 -11.5,1.67 2.66,19.51 -6.41,22.43 -11.56,4.33 -16.39,-14.38 -20.84,-25.64 -8.6,-21.78 -18.37,-51.92 -3.19,-75.32 9.22,28.98 23.12,52.83 40.06,75.32 4.89,6.5 9.5,17.49 19.22,19.23 0.82,-12.27 -8.74,-22.14 -14.42,-32.05 -19.41,-33.87 -39.07,-80.79 -35.26,-137.81 2.33,-34.71 14.35,-67.15 30.46,-92.9398 23.41,-37.52 86.89,-72.3399997 157.03,-59.3 40.46,7.52 78.03,30.26 96.16,59.3 18.59,29.7698 33.11,70.4698 30.44,118.5798 -1.56,28.22 -9.66,53.94 -19.23,78.52 -9.05,23.26 -22.58,43.13 -32.05,64.1 z m -17.62,2195.385 c 7.93,-21.67 -7.02,-45.74 -6.41,-70.51 -0.36,-1.25 -1.34,-1.87 -3.21,-1.6 -5.52,28.35 -1.14,53.02 9.62,72.11 z m 89.73,-30.45 c 6.79,6.04 4.47,21.17 12.82,25.64 1.05,-38.66 1.93,-77.61 -19.23,-100.96 5.96,21.3 6.54,47.96 6.41,75.32 z m -264.4,30.45 c 7.51,-21.13 14.39,-42.6 8.01,-70.51 -0.36,-1.25 -1.34,-1.87 -3.21,-1.6 2.31,24.49 -17.05,52.46 -4.8,72.11 z m -104.17,-4.81 c 6.49,0.67 4.64,-8.39 6.41,-12.82 2.02,-5.03 5.52,-9.3 6.41,-14.42 2.97,-16.96 -0.7,-39.39 1.6,-56.09 0.98,-7.06 7.51,-11.26 3.22,-17.63 -18.51,25.56 -19.17,62.16 -17.64,100.96 z m 182.68,-1325.24 c -2.1,45.31 -0.83,92.36 0,134.61 0.26,13.36 -2.25,29.04 8.02,38.46 7.53,-25.06 5.17,-53.66 6.41,-81.73 3.9,-88.75 -2.3,-181.18 -1.61,-266.01 -0.08,-0.97 -0.24,-1.9 -1.6,-1.6 -10.4,48.93 -8.29,113.44 -11.22,176.27 z m 4.81,-807.645 c 6.48,34.98 -15.59,101.36 3.21,118.58 0.29,0.27 1.26,-0.22 1.61,0 9.6,-28.23 2.3,-70.22 1.59,-104.16 -0.12,-5.81 2.88,-15.4 -3.2,-19.23 -1.07,0 -2.14,0 -3.21,0 0,1.6 0,3.204 0,4.81 z m 40.06,-48.08 c -8.56,-2.49 -18.5,-8.29 -27.24,-9.61 -17.71,-2.69 -32.09,5.42 -46.47,9.61 -5.34,1.56 -9.53,3.55 -14.42,4.81 -3.86,0.99 -10.21,-1.11 -12.82,3.2 20.82,16.57 46.62,-4.38 67.3,-3.2 12.32,0.7 26.77,10.14 40.06,9.61 6.18,-0.24 15.65,-1.76 20.83,-8.01 -9.42,-0.94 -17.68,-3.62 -27.24,-6.41 z M 2070.25,1311.7 c -0.2,10 27.27,30.6 31.19,37.08 -1.96,-11.58 -16.87,-27.28 -16.48,-41.79 -4.51,-20.02 6.28,-34.73 8.83,-52.98 -12.75,6.87 -19.62,37.87 -23.54,57.69 z m 84.76,-42.97 c -6.4,10.09 -3.29,25.92 -6.03,42.23 -1.56,9.3 -15.16,5.92 -15.16,17.22 0,2.23 -0.36,11.88 0.59,11.18 13.23,-9.77 23.54,-13.49 23.54,-32.96 0,-5.94 1.51,-16.33 0,-21.78 -0.99,-3.57 -3.2,-6.55 -1.63,-9.64 3.79,-7.52 -2.03,-6.49 -1.31,-6.25 z m 858.21,6.25 c 1.56,3.09 -0.65,6.07 -1.64,9.64 -1.51,5.45 0,15.84 0,21.78 0,19.47 10.31,23.19 23.55,32.96 0.95,0.7 0.59,-8.95 0.59,-11.18 0,-11.3 -13.6,-7.92 -15.17,-17.22 -2.74,-16.31 0.37,-32.14 -6.02,-42.23 0.71,-0.24 -5.1,-1.27 -1.31,6.25 z m 62.52,-20.97 c 2.55,18.25 13.34,32.96 8.83,52.98 0.39,14.51 -14.52,30.21 -16.48,41.79 3.92,-6.48 31.39,-27.08 31.2,-37.08 -3.93,-19.82 -10.79,-50.82 -23.55,-57.69 z"
     fill="#bbbdbf"
     id="path2" />
  <path
     fill-rule="evenodd"
     clip-rule="evenodd"
     d="m 700.189,213.815 c 34.56,0.24 38.23,40.95 28.85,78.52 -7.68,30.73 -21.29,57.05 -46.48,65.7 -7.98,37.41 -8.36,82.43 -12.82,123.39 9.49,13.33 25.28,20.06 38.46,28.84 39.33,26.23 79.1,55.83 118.59,83.33 45.05,4.31 95.78,9.22 131.4,25.64 31.97,14.73 53.761,39.34 72.111,68.9 17.09,27.54 36.83,62.59 40.06,99.36 3.73,42.33 -1.37,93.89 -9.61,131.4 -2.6,11.83 -9.44,25.85 -9.62,36.86 -0.13,8.56 5.13,23.43 8.01,35.25 13.03,53.485 20.93,117.275 16.03,189.085 -1.74,25.54 -8.31,52.88 -6.41,76.93 1.65,20.91 13.78,42.42 20.83,60.88 8.23,21.56 13.57,41.43 16.02,65.7 4.87,48.05 -1.68,98.45 -11.21,145.83 -13.44,66.84 -25.64,137.54 -32.05,213.14 -2.17,25.53 -5.66,52.94 -4.81,76.91 0.86,23.88 8.73,49.49 12.82,73.71 5.39,31.9 16.55,66.35 6.42,94.55 -3.32,9.22 -7.78,13.22 -16.03,22.43 -5.53,6.17 -8.73,15.46 -14.43,22.43 -5.35,6.57 -13.79,9.76 -20.83,17.63 -9.07,10.15 -12.41,17.82 -17.63,19.24 -14.701,4.03 -34.941,-2.74 -48.061,-6.41 -11.83,-3.31 -29.48,-8.44 -36.87,-16.02 -8.58,-8.82 -7.61,-21.85 -12.82,-32.06 -6.13,-12.03 -16.06,-12.95 -22.43,-20.84 -16.45,125.45 -34.41,247.78 -78.52,349.35 -8.01,18.44 -18.5,36.75 -20.83,59.29 -2.54,24.51 2.07,49.62 -1.6,75.31 -1.58,11.01 -6.68,22.65 -6.42,33.66 0.48,19.74 10.8,41.43 16.03,62.5 14.62,58.91 28.49,128.01 28.84,201.91 0.46,97.88 -26.74,186.11 -51.28,269.2 -17.03,57.71 -34.94,125.41 -46.47,193.91 -4.44,26.4 -12.61,55.98 -8,80.13 3.87,20.35 20.57,41.55 35.24,60.89 11.2,14.74 19.74,24.98 35.26,36.85 5.29,4.06 11.11,11.44 16.02,12.83 25.36,7.12 56.8,14.37 56.09,38.46 -0.41,14.02 -10.57,20.2 -35.25,20.83 -18.17,0.46 -36.3,0 -54.49,0 -37.29,0 -78.19,5.56 -108.97,1.59 -8.57,-1.11 -15.69,-6.96 -27.23,-8.01 -26.34,-2.41 -51.66,6.53 -60.9,-8.01 -11.71,-18.42 15.06,-70.81 14.42,-92.94 -0.37,-12.83 -6.72,-25.78 -6.41,-38.46 0.48,-19.4 10,-39.78 12.83,-60.89 13.67,-102.26 9.24,-243.81 -9.62,-341.33 -7.7,-39.77 -23.04,-76.94 -25.64,-120.18 -5.45,9.31 -4.42,20.01 -6.41,30.44 -5.61,29.48 -15.22,58.94 -20.84,89.74 -17.86,98.1 -21.62,236.7 -6.41,341.33 1.6,10.97 3.5,19.71 6.41,30.45 2.42,8.88 6.03,20.03 6.41,28.84 0.6,13.47 -6.33,26.13 -6.41,38.46 -0.19,32.88 23.98,60.35 16.03,94.54 -7.46,13.84 -38.199,6.7 -59.289,8.01 -12.78,0.78 -20.081,8.01 -35.261,8.01 -31.93,0 -62.71,0 -104.16,0 -34.6,-0.01 -83.42,5.18 -88.13,-14.41 -5.43,-22.6 18.12,-34.83 33.65,-40.08 5.49,-1.85 12.58,-2.04 19.23,-4.79 19.12,-7.94 40.51,-31.2 52.88,-48.08 11.34,-15.45 32.01,-42.61 35.25,-64.09 3.39,-22.37 -3.46,-49.97 -8,-75.32 -11.81,-65.81 -30.77,-138.37 -48.08,-197.11 -24.47,-83.06 -54.49,-168.53 -54.49,-272.41 0,-84.69 17.24,-159.81 35.26,-230.76 2.48,-9.75 7.64,-20.16 8.01,-28.84 0.79,-18.13 -8.17,-37.95 -9.61,-57.69 -1.61,-22.18 1.95,-50.05 -3.21,-68.92 -8.02,-29.34 -25.35,-56.63 -35.25,-88.12 -27.98,-88.94 -53.26,-196.34 -62.49,-302.88 -5.4,0.79 -14.32,7.47 -19.24,12.82 -7.74,8.43 -8.55,31.33 -17.63,40.06 -8.92,8.59 -25.49,10.92 -38.46,14.43 -17.91,4.86 -42.99,15.18 -56.079598,0 -1.99,-2.3 -2.7299,-8.82 -6.4099,-12.83 -5.83,-6.35 -14.5701,-10.11 -20.8301,-17.62 -12.95,-15.55 -26.4199,-27.58 -32.0499,-43.27 -8.38,-23.35 -0.78,-58.49 4.81,-91.34 4.12,-24.23 11.21,-49.03 12.82,-68.91 1.94,-24.08 -2.5,-51.47 -4.81,-78.52 -6.39,-74.56 -18.2001,-147.29 -32.0501,-216.33 -9.4199895,-46.93 -19.9199695,-93.31 -14.4199695,-147.43 2.46,-24.24 8.26002,-45.69 16.0200695,-67.3 7.22,-20.08 19.26,-40.96 20.83,-60.89 1.85,-23.42 -6.51,-49.45 -8.01,-75.32 -3.96,-68.36 1.48,-134.98 14.43,-190.685 2.66,-11.48 8,-24.01 8.01,-33.66 0.01,-11.02 -5.34,-23.97 -8.01,-35.25 -7.68,-32.24 -13.1401,-75.4 -12.8201,-116.98 0.33,-44.28 18.09,-80.13 36.85,-112.17 17.57,-30.01 42.529598,-60.14 73.709598,-75.32 26.92,-13.11 61.84,-18.23 94.55,-22.43 10.76,-1.39 14.57,-0.11 25.79,-3.21 11.52,-3.18 34.73,-15.63 46.32,-24.04 36.23,-26.28 76.12,-49.17 115.22,-75.31 -6.42,-43.77 -4.88,-95.53 -14.42,-136.21 -4.42,-6.04 -19.01,-8.91 -25.64,-17.63 -5.49,-7.23 -17.44,-34.46 -20.83,-46.47 -9.83,-34.83 -8.08,-82.45 28.85,-80.12 -2.61,-21.54 -7.76,-40.43 -8.02,-59.29 -0.65,-49.65 31.08,-93.39 64.11,-116.98 23.35,-16.7 58.48,-32.6700497 91.33,-35.2600497 71.57,-5.63 144.48,50.7000497 163.61,115.3800497 9.26,31.3 1.96,60.89 -3.21,94.55 z m 126.6,980.705 c -5.26,11.44 -14.97,23.63 -16.03,32.04 -0.92,7.39 2.06,21.63 3.21,32.05 4.98,45.17 11.11,97.07 1.6,137.82 32.07,50.91 22.31,125.08 33.65,190.69 3.57,20.64 10.05,41.6 14.42,60.9 19.45,85.77 18.66,180.21 25.64,275.62 8.33,-29.54 29.77,-54.54 40.06,-86.54 5.96,-18.51 8.58,-42.61 11.22,-65.7 2.68,-23.28 6.58,-49.06 6.42,-72.1 -0.27,-34.75 -13.71,-64.77 -25.65,-97.76 -10.91,-30.15 -20.2,-63.22 -28.84,-94.53 -15.59,-56.51 -15.8,-110.51 -3.21,-161.86 6.38,-26.02 18.79,-65.13 12.82,-96.14 -4.74,-24.65 -18.09,-49.71 -24.04,-76.93 -5.79,-26.54 -9.77,-63.97 -14.42,-89.74 -9.78,36.52 -21.54,78.86 -36.85,112.18 z m -599.33,-16.03 c -6.02,28.2 -21.32,53.61 -24.03,80.12 -4.18,40.78 11.37,64.83 17.62,94.55 13.51,64.2 5.01,126.64 -12.82,182.68 -8.09,25.45 -14.59,53.53 -24.03,80.12 -10.15,28.59 -20.54,54.33 -20.84,84.93 -0.2,20.92 3.67,42.72 6.41,64.1 2.77,21.54 4.54,43.52 9.62,62.5 9.55,35.67 30.06,65.92 44.87,97.75 3.52,-95.59 3.16,-187.3 19.23,-264.41 5.53,-26.52 14.16,-53.03 17.62,-76.92 7.55,-51.98 3.31,-104.16 16.03,-147.42 4.1,-13.93 13.36,-28.29 14.42,-41.67 1.08,-13.44 -4.21,-28.06 -4.81,-41.66 -1.86,-42.45 4.56,-84.72 9.62,-126.6 -26.56,-39.66 -39.17,-93.29 -56.09,-142.62 -3.25,32.99 -6.37,64.41 -12.82,94.55 z m 325.31,693.87 c -1.94,154.88 -3.15,305.58 -22.44,442.29 -2.76,19.55 -11.98,38.97 -11.21,56.08 0.56,12.81 8.78,26.5 11.21,40.07 5.89,32.91 5.41,71.37 1.6,104.16 -2.21,19.05 -8.92,35.61 -8.01,54.48 1.25,25.67 11.88,48.18 19.23,72.11 7.78,25.35 12.41,50.13 16.03,75.31 -1.55,-52.58 35.53,-99.53 33.65,-155.43 -0.69,-20.39 -8.35,-40.57 -9.62,-60.9 -1.64,-26.52 -2.91,-55.84 0,-81.72 1.86,-16.54 12.73,-33.51 12.83,-49.69 0.09,-16.45 -8.2,-35.35 -11.23,-54.47 -21.6,-136.87 -23.02,-292.24 -25.63,-443.88 -2.17,0.5 -3.07,2.27 -6.41,1.59 z"
     fill="#808284"
     id="path3" />
  <path
     fill-rule="evenodd"
     clip-rule="evenodd"
     d="m 434.029,438.156 c -0.29,-1.36 0.63,-1.51 1.61,-1.6 26.33,24.17 43.64,56.5 76.91,70.51 25.31,10.64 46.14,8.96 67.46,0 32.45,-13.65 53.42,-50.4 78.52,-70.51 -3.52,42.95 -7.37,85.57 -11.22,128.2 11.26,-2.56 9.11,-19.01 11.22,-28.85 2.47,-11.58 6.23,-22.58 8.01,-32.05 48.09,25.63 87.73,59.7 133.01,88.14 -22.3,0.34 -26.81,11.8 6.4,14.42 68.35,8.51 134.4,8.6 176.27,46.47 18.911,17.09 32.541,39.39 46.481,64.1 13.91,24.66 25.32,52.3 27.24,83.33 2.5,40.31 -2.91,85.42 -11.22,120.18 -2.85,11.95 -7.87,23.93 -8.01,35.26 -0.25,20.78 11.16,45.364 16.02,68.904 9.71,47 11.23,100.8 8.02,155.44 -1.52,25.88 -9.29,52.06 -8.02,75.32 1.16,21.12 14.16,45.03 22.44,67.3 8.78,23.63 15.82,47.36 17.62,72.11 5.37,73.68 -17.11,141.49 -28.84,213.13 -5.59,34.15 -10.82,70.38 -14.42,105.76 -3.86,38 -9.07,78.71 -6.41,113.78 1.69,22.35 8.74,47.24 12.82,72.11 4.4,26.76 14.46,59.79 8.01,81.73 -3.19,10.83 -16.66,18.79 -24.03,28.84 -2.22,3.02 -2.5,8.39 -4.81,11.22 -5.05,6.17 -11.96,10.13 -17.63,16.02 -5.9,6.15 -10.08,12.56 -16.03,17.63 -21.051,-6.16 -52.151,-3.8 -67.301,-19.23 -7.5,-7.65 -6.24,-22.88 -11.22,-32.05 -6.79,-12.53 -23.64,-13.65 -27.24,-28.85 -8.35,-35.26 27.78,-84.76 41.66,-118.58 14.75,-35.9 21.51,-95.34 24.04,-136.21 3.27,-52.49 -11.7,-85.52 -25.64,-126.59 -18.51,-54.56 -44.22,-122.06 -40.06,-193.9 1.03,-17.66 4.05,-34.88 8.01,-51.28 6.7,-27.67 20.61,-60.4 14.43,-97.75 -3.6,-21.77 -14.64,-43.71 -20.84,-67.3 -15.14,-57.7 -19.23,-126.02 -19.23,-201.914 0,-10.46 3.89,-25.15 -4.05,-34.53 23.94,-45.45 44.8,-124.23 37.94,-137.07 -9.44,-33.96 -21.66,-48.65 -37.97,-63.71 6.22,15.447 12.44,30.89 18.66,46.33 5.147,15.874 6.007,31.747 2.58,47.62 -12.58,69.71 -41.48,114.54 -90.1,129.35 -36.67,6.03 -74.85,1.52 -113.25,-4.51 32.98,16.52 77.06,23.17 140.93,12.23 16.63,-4.46 20.51,-7.69 28.42,-14.29 -0.05,6.26 0.82,13.05 0.82,18.58 0,15.73 1.14,33.734 0,44.874 -2.13,20.86 -10.34,41.96 -16.03,62.49 -11.31,40.84 -24.05,77.56 -40.06,113.78 -8.22,18.62 -17.72,36.13 -22.43,54.48 8.34,7.55 10.19,-11.65 14.42,-8.01 9.84,57.17 10.22,122.58 -3.2,174.67 -4.4,17.08 -12.23,32.85 -12.82,48.07 10.37,2.4 12.16,-12.93 16.02,-20.83 2.26,-4.62 6.06,-8.58 8.01,-12.82 2.09,-4.55 0.6,-11.73 6.41,-12.82 18.85,49.31 12.76,107.77 20.84,160.25 2.5,16.3 9.2,31.63 12.81,48.07 10.46,47.46 18.79,99.54 20.84,157.04 2.68,75.2 11.02,151.25 3.2,227.55 -10.59,103.41 -34.59,203.77 -64.1,291.65 -9.86,29.39 -28.89,58.37 -32.05,86.53 -2.22,19.91 1.31,39.44 0,57.69 -2.56,35.84 -12.97,65.66 -17.62,96.15 3.19,1.5 7.63,5.22 11.21,1.6 4.86,0.44 1.56,-9.81 6.41,-4.8 38.27,128.85 46.9,262.56 14.43,387.79 -15.44,59.55 -33.61,117.02 -48.08,174.67 -15.22,60.68 -32.49,122.54 -36.85,184.29 -2.9,41.05 15.81,66.32 33.65,91.34 13.04,18.28 29.67,32.08 41.66,46.47 -22.18,0.25 -46.11,-1.25 -64.1,3.2 3.17,6.93 12.84,4.01 19.23,4.81 26.9,3.37 73.78,1.64 96.15,12.82 6.47,3.23 18.26,7.73 14.42,17.63 -4.8,6.23 -14.44,2.85 -20.83,3.2 -19.04,1.03 -43.5,1.6 -67.3,1.6 -30.97,0 -65.02,4.08 -92.95,0 -6.75,-0.98 -12.76,-5.42 -19.23,-6.4 -21.16,-3.24 -39.5,5.8 -56.08,-1.61 -0.44,-15.94 4.56,-29.39 8.02,-43.26 3.28,-13.26 9.59,-28.76 9.6,-41.67 0.03,-15.11 -7.77,-27.49 -6.4,-43.26 1.35,-15.58 8.88,-29.88 11.21,-44.87 7.28,-46.74 8.58,-101.66 8.02,-155.44 -0.7,-66.73 -4.33,-133.32 -17.63,-201.92 -6.31,-32.5 -15.78,-61.24 -20.83,-89.73 -11.42,-64.34 -10.93,-132.81 8.01,-193.9 8.86,-28.61 20.79,-57.92 20.83,-88.14 0.02,-11.92 -3.98,-23.25 -6.41,-35.25 -6.4,-31.63 -9.85,-79.09 -3.2,-115.38 3.27,-17.88 13.33,-27.68 11.21,-52.88 -1.53,-18.32 -8.54,-37.1 -11.21,-56.09 -18.65,-132.13 -25.34,-289.26 -24.04,-442.28 -6.03,-6.5 -26.73,-6.04 -36.86,-3.2 -2.39,155.07 -3.84,308.36 -22.43,448.69 -3.11,23.44 -13.37,40.94 -11.22,67.3 1.39,17.08 11.3,33.43 12.82,49.68 2.44,25.86 1.71,53.11 0,78.52 -1.24,18.59 -9.38,37.59 -9.62,57.69 -0.35,30.23 11.89,61.69 20.84,89.74 18.24,57.14 23.87,130.08 11.21,197.1 -5.42,28.74 -14.85,57.31 -20.82,89.74 -18.85,102.16 -21.22,204.47 -11.23,310.88 1.51,15.95 1.67,33.57 4.82,49.67 2.9,14.88 10.45,28.32 11.21,43.27 0.69,13.75 -6.27,26.14 -6.41,38.46 -0.34,30.32 20.8,53.78 17.63,86.53 -17.26,4.69 -34.26,-0.87 -52.89,1.61 -7.12,0.94 -13.36,5.3 -20.83,6.4 -28.82,4.25 -60.33,0.44 -91.34,0 -15.82,-0.22 -32.41,0 -48.07,0 -15.14,0 -30.76,2.57 -44.87,-3.2 9.16,-27.75 49.29,-25.55 86.53,-28.85 16.45,-1.45 33.01,-0.35 44.87,-6.41 -7.25,-6.07 -19.9,-2.81 -30.44,-3.2 -10.83,-0.41 -22.35,-2.49 -32.05,-1.6 -5.69,0.01 3.68,-7.22 6.41,-9.62 18.22,-16.03 35.34,-36.93 49.67,-60.89 9.09,-15.19 16.86,-28.88 17.63,-51.28 0.54,-15.72 -3.57,-33.97 -6.41,-51.28 -18.63,-113.48 -51.43,-210.09 -80.12,-314.08 -36.21,-131.26 -27.95,-270.87 9.61,-394.21 1.77,-8.29 8.5,10.33 16.03,1.6 1.31,-16.31 -6.27,-32.35 -9.62,-49.67 -3.24,-16.8 -6.75,-35.73 -8.01,-54.49 -1.19,-17.81 3.1,-34.12 0,-52.88 -4.77,-28.83 -23.91,-55.44 -33.65,-84.93 -28.71,-86.92 -53.68,-185.37 -65.71,-286.84 -8.82,-74.48 -0.5,-151.89 1.61,-227.55 1.61,-57.86 10.22,-108.97 20.83,-157.04 3.34,-15.13 8.57,-31.05 11.22,-46.47 4.72,-27.47 3.98,-58.89 6.41,-88.14 2.25,-27.13 4.94,-53.26 14.42,-78.52 4.04,7.86 8.75,17.04 12.82,25.64 4.04,8.52 5.49,20.38 16.02,22.43 4.33,-9.4 -3.53,-19.61 -6.4,-28.84 -16.57,-53.22 -21.61,-125.54 -11.22,-192.3 3.61,-9.34 7.65,13.58 14.42,6.41 2.02,-10.06 -5.4,-18.73 -9.61,-27.24 -21.29,-43.05 -39.64,-91.37 -54.49,-144.22 -5.61,-19.99 -13.74,-42.11 -16.03,-62.5 -1.25,-11.25 0,-28.484 0,-43.264 0,-4.84 0.7,-10.49 0.83,-15.88 6.05,4.87 10.95,7.78 25.15,11.59 63.87,10.94 107.95,4.29 140.93,-12.23 -38.4,6.03 -76.59,10.54 -113.26,4.51 -48.61,-14.81 -77.51,-59.64 -90.09,-129.35 -3.427,-15.873 -2.57,-31.746 2.57,-47.62 6.227,-15.44 12.45,-30.883 18.67,-46.33 -16.31,15.06 -28.54,29.75 -37.97,63.71 -7.08,13.23 15.29,96.47 40.12,141.12 -5,8.02 -1.45,20.41 -1.37,28.87 0.74,69.964 -2.78,139.634 -16.02,198.714 -8.99,40.11 -31.84,74.15 -20.83,126.6 3.88,18.5 12.29,35.73 16.02,54.48 4.04,20.26 6.36,42.8 6.41,64.1 0.13,49.81 -14.88,94.3 -27.24,134.6 -6.2,20.22 -13.23,40.24 -20.83,60.9 -11.2,30.42 -18.69,59.7 -16.03,102.56 1.16,18.63 5.74,38.48 8.01,57.68 2.43,20.52 3.68,40.28 8.02,56.09 8.79,32.04 28.93,56.36 41.66,86.53 6.84,16.2 12.54,44.17 9.61,56.09 -2.83,11.54 -17.38,12.87 -25.63,27.24 -5.19,9.04 -3.94,24.01 -11.22,32.05 -6.28,6.94 -52.25,23.39 -67.3,19.23 -11.84,-3.26 -16.939898,-25.98 -32.049898,-28.84 -8.11,-20.79 -30.6301,-29.83 -33.6601,-51.28 -1.59,-11.38 1.2801,-26.64 3.2101,-40.06 1.78,-12.36 4.4399,-24.82 6.4099,-36.86 3.95,-24.19 11.85,-50.34 12.82,-73.71 0.72,-17.3 -1.6999,-37.68 -3.1999,-56.09 -7.18,-87.87 -21.8,-168.75 -38.46,-251.59 -12.16,-60.43 -19.0300295,-125.2 0,-182.68 7.63,-23.06 22.41,-44.27 25.64,-67.3 3.5,-24.98 -4.2001,-52.55 -6.4201,-80.13 -4.46,-55.49 -2.9599,-109.08 6.4201,-158.64 4.55,-24.07 14.8,-48.514 14.42,-70.514 -0.21,-12.33 -5.0101,-25.7 -8.0201,-38.46 -7.75,-32.95 -14.4299,-84.22 -11.2099,-126.59 3.51,-46.24 38.5899,-105.9 65.699898,-133.01 37.35,-37.35 105.99,-47.81 179.47,-51.28 37.66,-2.67 29.35,-13.85 3.94,-16.02 38.92,-26.79 90.06,-56.48 132.12,-80.12 1.29,9.19 2.75,19.18 4.81,28.84 1.67,7.79 2.38,19.26 9.61,22.43 0.2,-39.19 -7.03,-84.83 -9.61,-126.59 z m 142.79,896.384 c -10.34,-27.87 -37.54,-30.75 -50.17,-0.38 2.95,12.14 19.41,-27.13 50.17,0.38 z m -65.91,-694.834 c 14.04,2.42 13.23,16.29 19.88,23.73 17.28,19.33 3.6,-13.01 2.49,-16.81 -3.64,-12.55 -15.57,-18.5 -28.74,-18.5 -8.5,0 -14.71,-2.37 -22.98,-4.11 -7.08,-0.75 21.74,14.38 29.35,15.69 z m 108.85,-15.69 c -8.26,1.74 -14.48,4.11 -22.97,4.11 -13.18,0 -25.11,5.95 -28.75,18.5 -1.1,3.8 -14.79,36.14 2.49,16.81 6.65,-7.44 5.84,-21.31 19.89,-23.73 7.6,-1.31 36.43,-16.44 29.34,-15.69 z M 442.329,2367.28 c 6.86,6.86 25.15,17.86 34.77,17.85 21.31,-1.31 14.17,-14.39 12.58,-17.2 -2.51,13.93 -42.85,-1.13 -60.48,-29.98 1.57,9.78 3.72,19.92 13.13,29.33 z m -33.01,-13.39 c -12.83,13.18 -20.35,21.06 -41.56,23.11 4.25,4.46 9.2,9.95 27.19,6.16 13.38,-8.04 14.73,-18.48 14.37,-29.27 z m -20.72,183.27 c 16.62,10.64 38.45,14.21 54.07,7.8 -16.92,-4.31 -30.76,-7.31 -37.6,-14.53 -19.22,-16.83 -23.3,-61.23 -26.81,-96.74 -12.97,9.69 -4.48,93.96 10.34,103.47 z m 102.37,-123.13 c -0.22,18.78 0.16,86.99 -7.91,103.78 -3.9,8.15 -15.13,15.58 -24.12,18.38 15.62,6.41 13.56,7.09 30.19,-3.54 14.81,-9.52 14.81,-108.93 1.84,-118.62 z m 197.9,-76.08 c -17.63,28.85 -57.98,43.91 -60.48,29.98 -1.59,2.81 -8.73,15.89 12.58,17.2 9.62,0.01 27.91,-10.99 34.77,-17.85 9.4,-9.41 11.56,-19.55 13.13,-29.33 z m 34.25,45.21 c 17.98,3.79 22.93,-1.7 27.19,-6.16 -21.21,-2.05 -28.74,-9.93 -41.56,-23.11 -0.37,10.79 0.98,21.23 14.37,29.27 z m 16.69,50.53 c -3.51,35.51 -7.6,79.91 -26.81,96.74 -6.85,7.22 -20.69,10.22 -37.61,14.53 15.62,6.41 37.45,2.84 54.08,-7.8 14.81,-9.51 23.31,-93.78 10.34,-103.47 z m -110.87,98.96 c 16.62,10.63 14.57,9.95 30.18,3.54 -8.98,-2.8 -20.21,-10.23 -24.12,-18.38 -8.06,-16.79 -7.68,-85 -7.91,-103.78 -12.96,9.69 -12.96,109.1 1.85,118.62 z m 60.03,-2283.584 c 13.06,-2.67 4.16,-14.18 14.43,-17.63 6.41,-2.15 12.83,7.18 14.42,14.42 7.18,32.61 -16.73,84.12 -32.05,92.95 0.49,-6.9 0.11,-12.94 -6.41,-12.82 -8.64,6.57 -8.83,23.11 -11.22,36.85 -7.72,44.46 -23,67.01 -49.67,94.55 -19.68,20.31 -34.14,43.79 -72.27,41.66 -31.62,-1.76 -52.55,-21.46 -72.11,-41.66 -15.88,-16.39 -33.18,-34.16 -41.66,-56.09 -9.12,-23.58 -6.52,-51.05 -17.63,-75.31 -7.88,-0.94 -8.62,5.26 -8.01,12.82 -14.76,-8.59 -29.83,-43.23 -32.05,-70.51 -1.36,-16.74 0.52,-36.32 12.82,-36.86 12.61,-1.92 3.8,17.57 14.43,17.63 9.72,-5.15 3.76,-17.13 3.2,-24.04 -1.94,-23.5 -7.01,-49.54 -4.81,-78.52 2.37,-31.32 18.27,-57.1296 35.26,-75.3096 29.44,-31.53 70.45,-54.27 115.52,-51.28 39.72,2.63 82.81,26.7 105.76,51.28 21.79,23.32 37.32,52.5696 35.26,99.3496 -0.78,17.8 -3.05,34.47 -4.81,52.88 -0.74,7.78 -5.15,18.3 1.6,25.64 z"
     fill="#bbbdbf"
     id="path4" />
  <path
     d="m 1728.91,319.576 c -0.29,10.12 5.76,18.71 4.91,25.39 -0.58,4.57 -3,4.63 -3.31,9.86 -0.23,3.94 2.19,8.91 1.61,12.82 -1.51,10.22 -9.41,19.55 -9.62,28.85 -0.27,12.03 9.65,21.86 11.23,33.65 1.79,13.57 -1.68,29.42 -8.02,36.85 -24.05,28.18 -85.56,-6.55 -102.56,22.44 -8.68,14.81 0.99,29.44 0,48.07 -1.2,22.64 -16.44,33.11 -12.82,54.49 1.98,11.71 15.38,13.81 24.04,25.64 7.26,9.92 8.51,20.74 12.81,25.64 8.06,9.16 22.31,14.01 32.06,22.43 25.49,22.03 52.39,55.55 73.71,89.74 28.73,46.08 66.84,112.87 38.46,181.08 7.76,38.64 27.24,74.464 28.85,116.984 0.87,22.97 -7.8,44.82 -9.62,68.9 -1.97,26.03 5.24,55.98 3.21,83.33 -0.7,9.23 -4.94,18.87 -4.82,27.24 0.19,12.41 8.18,25.14 9.63,36.86 3.07,24.91 -0.33,52.73 -6.42,75.32 -1.82,6.77 -6.32,12.12 -6.4,19.23 -0.16,11.67 6.79,20.61 8.01,30.44 3.31,27 -1.16,57.12 -4.82,83.33 -9.84,70.68 -34.55,142.85 -56.08,203.51 26.99,63.22 82.73,125.39 118.58,187.49 11.99,20.77 29.13,45.41 28.85,72.11 -0.15,14.04 -7.15,25.62 -11.22,43.27 -4.18,18.14 -3.76,38.53 -9.61,51.28 -5.35,11.66 -17.84,22.89 -28.85,24.04 -9.59,0.99 -14.64,-6.69 -27.24,-8.02 -9.88,-1.03 -21.19,4.7 -28.85,3.21 -12.96,-2.53 -14.05,-12.29 -20.82,-19.23 -14.68,6.11 -29.83,1.99 -38.47,-6.41 -10.22,59.7 -26.63,120.11 -43.26,177.87 -17.66,61.33 -31.92,122.38 -60.4,171.43 -19.35,33.32 -16.5,25.22 -10.64,62.62 3.97,25.31 3.82,55.53 -4.28,76.83 -4.18,11 -17.42,17.59 -24.03,30.45 -4.76,9.25 -7.1,21.29 -11.23,30.45 -6.36,14.13 -17.65,25.69 -22.43,40.06 -6.9,20.76 -7.56,51.73 -9.61,80.12 -2.08,28.76 -2.66,58.48 -4.81,84.93 -4.36,53.53 -16.96,102.19 -24.04,155.44 -7.5,56.48 -4.75,112.53 0,169.86 4.12,49.69 9.59,115.33 25.64,152.24 7.73,17.77 27.79,30.69 46.48,44.86 34.45,26.16 62.92,45.85 99.35,70.51 16.97,11.49 34.96,25.03 52.88,32.05 23.51,9.21 57.7,6.49 81.73,9.62 28.72,22.29 2.85,73.57 -36.87,68.9 -5.46,-0.64 -9.4,-4.72 -16.01,-4.8 -9.46,-0.12 -19.43,4.73 -27.25,4.8 -21.74,0.21 -47.99,-7.2 -76.92,-9.61 -59.69,-4.97 -136.63,-12.3 -201.91,-4.81 -14.86,1.71 -28.79,5.06 -38.46,3.21 -26.32,-5.05 -45.1,-41.39 -44.86,-72.11 0.15,-21.34 9.68,-40.77 17.62,-59.3 2.96,-6.89 7.3,-12.59 8.01,-17.62 1.44,-10.21 -1.47,-26.67 -3.21,-40.06 -10.45,-80.71 -43.34,-157.07 -72.11,-221.15 -34.16,-76.1 -74.95,-156.66 -68.9,-266 4.43,-80 38.52,-138.55 68.9,-195.51 10.1,-18.91 22.24,-38.02 30.45,-57.68 7.52,-18.01 10.84,-40.21 16.03,-60.9 5.26,-20.96 11.18,-41.92 11.21,-64.1 0.06,-38.68 -9.08,-78.88 -12.82,-118.58 -7.41,-78.94 -9.61,-164.62 -9.61,-253.19 0,-47.91 9.02,-104.56 -1.61,-141.02 -5.6,-19.23 -18.86,-31.84 -27.23,-46.47 -19.12,-33.36 -39.44,-74.6 -35.26,-133 1.86,-25.99 8.65,-52.52 14.42,-76.92 11.36,-48.06 29.39,-91.51 52.88,-129.8 11.49,-18.72 26.6,-37.22 35.26,-59.29 11.94,-30.45 11.79,-70.84 20.83,-102.56 -5.27,-15.7 -9.52,-21.75 -11.21,-35.25 -0.88,-6.96 2,-15.71 1.6,-24.04 -0.68,-13.81 -8.61,-30.07 -12.83,-44.87 -11.87,-41.75 -28.72,-84.46 -49.67,-118.58 -13.5,-22 -28.2,-46.35 -43.27,-70.51 -14.19,-22.78 -32.1,-46.55 -41.66,-70.514 -20.53,-51.39 -11.43,-129.54 -3.21,-187.49 4.39,-30.89 5.67,-61.63 14.42,-88.13 8.4,-25.42 20.18,-49.43 32.05,-72.11 11.82,-22.57 29.28,-41.4 40.07,-62.5 20.09,-39.31 29.6,-90.35 25.64,-152.23 -1.12,-17.46 -1.77,-37.18 -4.81,-49.68 -2.16,-8.86 -9.5,-18.7 -14.42,-27.24 -21.94,-38.07 -46.48,-81.66 -46.48,-142.62 0,-41.96 16.15,-95.34 33.66,-123.3898 50.98,-81.66 242.07,-98.7300297 318.89,-24.04 19.47,18.93 28.45,46.1498 40.06,76.9198 4.08,10.8 15.81,25.49 16.02,35.25 0.3,13.16 -13.04,21.79 -12.82,35.26 0.26,15.49 15.01,26.62 24.04,38.46 8.31,10.87 21.9,25.15 20.83,41.66 -0.94,14.59 -10.63,21.93 -27.24,24.04 z"
     fill="#808284"
     id="path5" />
  <path
     fill-rule="evenodd"
     clip-rule="evenodd"
     d="m 1438.87,1394.83 c 1.36,-0.29 1.51,0.63 1.6,1.61 3.72,51.4 21.85,94.64 41.66,133 19.55,37.86 40.86,73.5 67.31,107.37 35.28,45.18 76.14,95.78 110.57,150.63 4.82,7.69 10.35,17.87 16.02,27.24 5.85,9.67 14.48,20.33 16.03,27.24 4.72,21.02 -3.19,51.19 0,78.52 1.27,10.94 6.05,22.52 6.41,32.05 0.79,21.17 -7.38,40.17 8.01,54.49 2.27,2.11 4.04,5.41 6.41,6.4 2.73,1.16 8.44,-3.61 9.61,3.21 -14.07,72.92 -32.3,146.07 -52.88,214.73 -10.34,34.47 -19.78,69.46 -32.05,100.96 -12.41,31.83 -31.2,57.69 -48.07,84.93 -0.23,7.78 6.43,2.3 8.01,3.2 12.15,6.91 13.22,64.49 6.41,86.54 -3.8,12.27 -19.07,21.59 -25.63,35.25 -4.51,9.35 -4.9,21.4 -9.63,32.05 -6.5,14.64 -19.67,26.19 -24.03,38.46 -7.6,21.35 -7.57,53.38 -9.62,83.32 -2.03,29.92 -4.22,60.25 -6.41,86.54 -4.68,56.49 -17.82,110.46 -24.03,160.25 -10.58,84.77 -1.45,176.2 11.21,256.39 4.38,27.67 8.46,55.75 17.63,73.71 7.6,14.87 27.64,31.41 44.88,44.87 35.4,27.66 67.67,46.71 105.75,72.11 31.32,20.88 50.37,36.71 96.16,41.67 13.86,1.49 30.22,-1.64 43.26,6.41 1.3,17.14 -7.37,28.58 -19.23,32.05 -9.7,2.84 -17.76,-3.23 -30.44,-3.21 -11.24,0.03 -21.1,4.93 -30.46,4.81 -22.37,-0.28 -48.01,-7.26 -75.31,-9.62 -59.96,-5.15 -132.74,-12.94 -201.91,-4.8 -15.38,1.81 -27.36,5.44 -35.26,3.2 -14.15,-4 -28.33,-27.9 -30.44,-46.47 -2.57,-22.53 7.29,-45.22 16.02,-60.89 3.38,-6.07 8.53,-10.93 9.61,-16.03 1.88,-8.77 -1.73,-24.11 -3.2,-38.46 -14.13,-137.98 -75.86,-225.28 -115.38,-338.12 -14.69,-41.96 -27.24,-85.78 -27.24,-136.21 0,-77.57 28.73,-139.65 59.29,-197.1 14.73,-27.68 32.83,-55.08 43.27,-84.93 5.36,-15.33 9.93,-32.72 14.42,-49.68 4.42,-16.66 8.34,-35.34 9.61,-52.88 3.14,-42.93 -6.42,-84.71 -11.21,-124.99 -11.91,-100.12 -9.62,-214.77 -9.62,-326.9 0,-32.76 4.18,-63.62 -4.8,-88.14 -6.04,-16.49 -17.24,-28.61 -25.64,-43.27 -16.8,-29.31 -33.98,-63.8 -35.26,-102.56 -1.28,-39.07 10.84,-76.04 19.23,-108.96 8.79,-34.45 19.92,-66.23 33.65,-92.95 14.28,-27.75 36.83,-50.49 49.68,-78.52 9.79,-21.34 8.59,-53.13 16.03,-78.52 z m 32.04,1985.46 c 7.95,2.22 26.22,0.23 32.05,-8.01 -28.41,-0.56 -34.66,-12.99 -38.45,-36.86 -1.92,-12.04 1.93,-27.47 -8.02,-33.65 -5.1,24.01 -9.43,71.85 14.42,78.52 z M 1708.08,180.156 c -7.31,19.5 -13.77,26.31 -11.22,43.27 1.97,13.08 13.88,23.97 22.44,35.25 8.14,10.73 23.07,28.61 20.83,36.86 -3.3,12.19 -18.48,5.31 -28.85,12.82 -4.02,10.74 5.3,18.35 6.41,28.84 0.94,8.83 -0.13,20.79 -1.6,28.85 -2.26,12.47 -9.59,19.16 -8.01,36.86 1.77,19.83 18.05,32.88 6.41,52.88 -32.81,18.31 -59.19,-2.95 -88.13,11.21 -13.82,6.77 -21.23,21.91 -22.44,36.86 -0.86,10.53 3.78,20.74 3.2,32.05 -1,19.89 -17.36,42.11 -11.21,64.1 3.31,11.88 17.92,16.12 27.24,28.84 6.34,8.66 7.99,18.511 12.82,24.041 7.98,9.12 19.07,13.129 28.85,20.829 8.45,6.66 16.75,15.961 24.03,24.041 14.91,16.55 30.12,33.64 43.27,52.88 26.18,38.29 55.24,84.699 54.49,139.419 -0.39,27.35 -11.04,54.171 -40.07,56.081 -40.39,2.67 -64.33,-32.161 -88.13,-48.071 15.11,38.66 71.11,83.39 121.79,52.88 5.83,34.5 20.69,61.674 24.03,96.154 2.53,26.15 -8.2,49.64 -9.62,76.92 -1.37,26.47 5.42,57.28 3.21,84.93 -0.9,11.23 -4.04,20.35 -3.21,30.44 1.27,15.36 9,29.33 9.62,43.27 0.66,14.86 -2.28,29.91 -4.8,43.27 -2.37,12.45 -9.48,25.37 -9.62,38.46 -0.15,14.05 8.84,27.1 9.62,40.06 1.36,23.14 -3.03,49.31 -6.41,72.11 -9.79,66.05 -30.66,127.75 -48.08,185.88 -30.02,-68.35 -39.32,-147.34 -57.69,-222.74 -17.75,-72.88 -60.6,-132.41 -92.95,-187.49 18.8,-71.27 14.07,-166.88 1.61,-241.97 -4.98,-29.983 -16.13,-58.453 -14.43,-81.723 1.67,-22.79 18.01,-40.781 27.24,-57.691 12.94,-1.18 12.46,11.04 24.05,11.21 1,-12.63 -8.79,-27.19 -22.44,-27.24 -19.22,-0.07 -43.93,51.891 -44.86,75.321 -0.87,21.42 7.92,45.91 12.82,70.513 12.66,63.57 21.03,159.08 4.8,224.34 -2.19,8.01 -2.84,-10.23 -11.22,-6.41 -4.18,35.72 23.18,60.97 38.46,88.14 15.06,26.79 32.36,54.81 44.87,84.93 12.79,30.81 19.23,66.08 27.24,102.55 7.43,33.83 14.98,69.8 24.04,105.77 26.92,106.9 81.96,172.18 136.21,253.19 11.42,17.06 42.81,59.22 43.27,86.53 0.2,12.13 -7.29,20.58 -11.22,35.25 -2.46,9.17 -1.97,19.26 -3.21,28.85 -2.13,16.44 -6.78,38.29 -22.44,40.06 -6.6,0.75 -11.02,-5.11 -20.83,-6.41 -12.6,-1.66 -22.14,1.24 -28.83,3.21 -10.11,-5.82 -9.59,-16 -20.84,-19.23 -7.76,-2.23 -13.89,1.49 -25.64,1.6 -7.87,-5.84 -6.19,-17.22 -14.42,-22.44 -7.66,-4.85 -14.35,-0.31 -22.44,-4.8 -9.35,-15.09 -1.74,-32.8 -3.2,-49.68 -0.85,-9.77 -5.33,-20.44 -6.41,-32.05 -2.52,-27.03 6.99,-57.25 1.6,-78.52 -1.8,-7.09 -11.86,-16.2 -17.63,-25.64 -15.63,-25.62 -34.45,-57.29 -49.68,-80.12 -24.6,-36.9 -51.46,-67.22 -75.3,-97.75 -52.72,-67.49 -93.24,-137.86 -110.58,-233.96 3.19,-7.07 17.61,14.8 25.64,9.61 1.05,-14.38 -16.78,-20.34 -25.64,-32.05 -18.88,-24.98 -30.68,-66.74 -12.82,-97.75 -3.31,-11.58 -11.93,3.85 -14.42,-3.2 -12.84,-77.08 -65.94,-130.16 -60.9,-221.14 1.11,-20.01 8.34,-44.49 3.21,-65.704 -3.55,-14.71 -10.9,-29.1 -17.63,-43.27 -6.56,-13.81 -13.42,-27.459 -19.23,-41.659 -12.33,-30.18 -19.23,-66.161 -19.23,-100.961 0,-52.97 25.53,-95.94 57.7,-126.59 14.17,-13.52 29.22,-17.649 44.86,-33.659 -9.19,-4.25 -19.63,3.979 -27.24,8.019 -8.67,4.59 -18.46,9.221 -25.64,14.421 -33.04,23.93 -60.35,73.519 -64.1,118.579 -5.85,70.24 16.44,123.6 38.47,169.86 6.33,13.32 15.59,26.441 17.62,38.461 6.17,36.623 -12.98,74.723 -1.61,110.573 -12.22,-18.08 -23.21,-36.77 -35.25,-56.08 -11.34,-18.2 -26.23,-37.45 -33.65,-57.694 -7.72,-21.05 -8.72,-48.31 -9.62,-70.51 -1.04,-26.14 2.03,-51.08 4.81,-73.72 5.36,-43.54 9.19,-99.299 24.04,-134.599 8.02,-19.07 18.27,-35.681 27.24,-52.881 8.97,-17.19 20.32,-31.51 30.45,-48.08 34.63,-56.66 38.78,-134.59 30.44,-221.14 -1.36,-14.2 -13.58,-28.74 -20.82,-41.66 -19.6,-34.94 -44.31,-81.85 -40.07,-141.02 2.84,-39.67 16.72,-86.91 36.85,-112.1695 55.28,-69.35 222.75,-76.54 288.45,-12.82 26.43,25.6295 31.62,63.7095 51.28,100.9495 z M 1491.75,1322.72 c 3.12,8.84 4.51,21.76 4.8,33.65 0.17,6.77 -6.44,17.75 3.21,19.23 14.64,-10.82 14.99,-49.19 -1.6,-57.69 -1.61,0 -3.21,0 -4.81,0 -0.09,2.05 -2.05,2.22 -1.6,4.81 z M 1422.84,277.906 c -3.27,27.59 21.69,66.26 36.86,76.92 9.91,6.97 25.33,11.46 36.85,11.22 -3.04,-11.32 -16.61,-12.89 -24.03,-19.23 -13,-11.1 -38.9,-45.94 -33.65,-70.51 2.89,-13.56 28.47,-31.91 46.47,-28.84 14.36,2.44 14.77,18.81 28.84,20.83 1.54,-61.23 -86.29,-32.98 -91.34,9.61 z m 155.45,181.08 c -5.31,-7.27 -13.75,-11.19 -20.84,-16.02 -21.01,-14.3 -32.87,-33.2 -40.07,-60.9 -1.6,0 -3.2,0 -4.8,0 -3.63,50.13 23.11,78.36 65.71,76.92 z m 145.32,721.544 c 5.22,-37.61 32.89,-69.62 59.23,-101.95 -22.65,14.56 -38.84,30.42 -48.55,47.58 -8.41,19.42 -16.83,38.83 -25.24,58.25 0.97,23.3 5.82,22.01 14.56,-3.88 z m -19.72,135.96 c 6.6,37.76 10.81,74.92 11.55,111.22 0.19,26.69 8.45,23.26 7.15,-17.62 2,-29.15 -10.38,-102.21 -18.7,-93.6 z"
     fill="#bbbdbf"
     id="path6" />
  <path
     d="m 347.149,638.085 c -82.21,36.27 -158.32,110.82 -210.01,239.53 -9.89,5.12 -24.68,-2.51 -14.65,-67.21 14.47,-53.92 7.93,-84.97 63.49,-162.54 45.56,-48.33 172.25,-28.24 161.17,-9.78 z"
     fill="#e6e7e8"
     id="pectoral_r_1" />
  <path
     d="m 185.27,639.216 c -60.97,59.97 -89.940198,181.32 -73.08,263.38 -12.490198,45.63 -26.860198,74.07 -36.540198,46.88 -37.52,-147.39 -7.1499,-237.1 62.770198,-294.45 8.69,-6.45 42.2,-22.13 46.85,-15.81 z"
     fill="#e6e7e8"
     id="path8" />
  <path
     d="m 188,880.196 c -7.4,-37.28 -16.98,-60.09 -41.91,18.34 -47.290098,108.844 -39.97,215.574 -41.92,320.884 4.73,77.11 38.38,66.96 66.8,27.51 33.1,-57.21 64.84,-234.4 17.03,-366.734 z"
     fill="#e6e7e8"
     id="path9" />
  <path
     d="M 94.049502,968.675 C 114.676,942.055 119.02,946.945 107.08,983.345 94.709502,1059.78 86.919602,1135.55 96.489602,1229.47 c 0,30.22 -24.15,39.77 -31.75,15.48 -16.27,-113.91 -19.7,-216.82 29.3099,-276.275 z"
     fill="#e6e7e8"
     id="path10" />
  <path
     d="m 54.579002,1311.97 c 21.42,-64.72 91.719998,-35.86 86.599998,51.68 15.76,133.11 -12.4,251.43 0,391.1 -4.19,42.37 -13.04,45.63 -20.95,9.78 -17.33,-174.86 -97.619998,-356.11 -65.649998,-452.56 z"
     fill="#e6e7e8"
     id="path11" />
  <path
     d="m 27.560302,1428.05 c 8.8,-61.41 12.89,-5.74 18.75,27.73 18.2,113.18 59.019698,222.44 66.819698,333.62 -0.54,24.61 -24.179698,30.31 -33.409698,21.2 0.75,-111.26 -58.28,-341.92 -52.16,-382.55 z"
     fill="#e6e7e8"
     id="path12" />
  <path
     d="m 175.889,1296.84 c -18.42,-16.56 -26.849,-8.12 -25.289,25.3 7.87,87.35 15.54,174.68 -1.87,259.51 -1.254,36.22 3.743,41.22 14.99,14.99 36.58,-97.9 55.639,-196.9 12.169,-299.8 z"
     fill="#e6e7e8"
     id="path13" />
  <path
     d="m 755.939,638.085 c 82.21,36.27 158.32,110.82 210.01,239.53 9.89,5.12 24.69,-2.51 14.65,-67.21 -14.47,-53.92 -7.93,-84.97 -63.49,-162.54 -45.56,-48.33 -172.25,-28.24 -161.17,-9.78 z"
     fill="#e6e7e8"
     id="pectoral_l_1" />
  <path
     d="m 917.82,639.216 c 60.97,59.97 89.94,181.32 73.08,263.38 12.5,45.63 26.86,74.07 36.54,46.88 37.52,-147.39 7.15,-237.1 -62.77,-294.45 -8.68,-6.45 -42.2,-22.13 -46.85,-15.81 z"
     fill="#e6e7e8"
     id="path15" />
  <path
     d="m 920.769,880.196 c 7.4,-37.28 16.98,-60.09 41.91,18.34 47.291,108.844 39.971,215.574 41.921,320.884 -4.731,77.11 -38.381,66.96 -66.801,27.51 -33.11,-57.21 -64.84,-234.4 -17.03,-366.734 z"
     fill="#e6e7e8"
     id="path16" />
  <path
     d="m 1014.72,968.675 c -20.627,-26.62 -24.971,-21.73 -13.03,14.67 12.37,76.435 20.16,152.205 10.59,246.125 0,30.22 24.15,39.77 31.75,15.48 16.27,-113.91 19.69,-216.82 -29.31,-276.275 z"
     fill="#e6e7e8"
     id="path17" />
  <path
     d="m 1054.19,1311.97 c -21.42,-64.72 -91.72,-35.86 -86.6,51.68 -15.76,133.11 12.4,251.43 0,391.1 4.19,42.37 13.04,45.63 20.95,9.78 17.33,-174.86 97.62,-356.11 65.65,-452.56 z"
     fill="#e6e7e8"
     id="path18" />
  <path
     d="m 1081.21,1428.05 c -8.8,-61.41 -12.89,-5.74 -18.75,27.73 -18.2,113.18 -59.02,222.44 -66.821,333.62 0.54,24.61 24.181,30.31 33.411,21.2 -0.75,-111.26 58.28,-341.92 52.16,-382.55 z"
     fill="#e6e7e8"
     id="path19" />
  <path
     d="m 932.869,1296.84 c 18.427,-16.56 26.86,-8.12 25.3,25.3 -7.87,87.35 -15.54,174.68 1.87,259.51 1.254,36.22 -3.743,41.22 -14.99,14.99 -36.58,-97.9 -55.64,-196.9 -12.18,-299.8 z"
     fill="#e6e7e8"
     id="path20" />
  <path
     d="m 426.81,569.325 c 13.04,39.01 20.41,33.15 -24.54,30.03 -92.91,-6.45 -89.7,-4.3 -12.41,-46.39 36.67,-19.96 25.16,-18.86 36.95,16.36 z"
     fill="#e6e7e8"
     id="shoulder_front_r" />
  <path
     d="m 449.369,477.676 c 1.81,36.62 19.66,92 35.91,116.85 23.75,36.32 52.46,31.62 48.61,14.75 -28.56,-40.35 -31.69,-86.95 -41.08,-101.05 -22.77,-14.55 -40.48,-50.5 -43.44,-30.55 z"
     fill="#e6e7e8"
     id="trapezius_front_r" />
  <path
     d="m 382.099,639.885 c 33.03,-10.55 161.43,41.49 140.44,48.11 -88.28,28.41 -174.04,47.62 -272.34,112.8 -34.04,18.01 -36.78,9.79 -24.65,-23.5 24.52,-76.81 85.02,-110.81 156.55,-137.41 z"
     fill="#e6e7e8"
     id="pectoral_r_2" />
  <path
     d="m 277.21,793.285 c -18.48,9.82 -34.71,19.06 -44.06,25.36 -16.13,10.85 -14.76,16.52 4.42,12.28 19.7,-4.35 40.84,-4.31 60.88,-3.13 106.7,6.27 195.16,44.22 233.91,39.29 13.72,1.76 10.55,-154.88 -11.6,-155.23 -97.42,12.85 -168.65,37.61 -243.55,81.43 z"
     fill="#e6e7e8"
     id="biceps_r" />
  <path
     d="m 255.809,836.336 c -36.64,2.28 -36.89,7.52 -34.12,34.82 11.62,41.8 36.45,79.33 74.46,87.01 81.95,16.57 193.95,-22.65 208.39,-25.21 19.46,-6.38 43.4,-26.69 12.57,-44.39 -75.72,-36.27 -217.9,-57.74 -261.3,-52.23 z"
     fill="#e6e7e8"
     id="forearm_front_r" />
  <path
     d="m 409.02,989.776 c -14.3,11.554 -25.3,64.364 -6.6,64.364 16.08,-1.12 26.31,-12.13 55.08,-15.35 23.84,-2.66 49.66,-0.44 64.58,-2.8 25.58,-12.66 23.1,-82.254 -0.83,-84.174 -41.81,2.1 -84.12,6.16 -112.23,37.96 z"
     fill="#e6e7e8"
     id="abs_r_1" />
  <path
     d="m 402.059,1069.92 c 26.08,-17.59 90.97,-26.19 124.11,-16.81 15.53,7.39 15.18,76.51 5.42,101.88 -10.92,19.01 -75.36,7.45 -121.57,19.86 -32.41,12.47 -35.36,-85.04 -7.96,-104.93 z"
     fill="#e6e7e8"
     id="abs_r_2" />
  <path
     d="m 403.759,1195.84 c 22.14,-13.34 80.959,-17.4 109.529,-14.3 33.9,2.52 26.03,101.83 12.15,110.1 -15.72,13.34 -12.149,24.54 -27.859,40.75 -12.38,8.34 -44.76,10.96 -63.57,19.3 -40.23,11.43 -52.15,-146.56 -30.25,-155.85 z"
     fill="#e6e7e8"
     id="abs_r_3" />
  <path
     d="m 427.999,1380.1 c 28.88,-16.57 57.77,-27.99 86.65,-24.76 18.77,4.96 21.77,15.41 21.46,25.58 2.52,81.47 2.26,160.16 2.47,239.31 -1.65,28.89 -32.18,52.82 -52.81,10.73 -43.46,-71.52 -88.58,-237.11 -57.77,-250.86 z"
     fill="#e6e7e8"
     id="abs_r_4" />
  <path
     d="m 665.929,569.325 c -13.05,39.01 -20.42,33.15 24.53,30.03 92.91,-6.45 89.7,-4.3 12.41,-46.39 -36.67,-19.96 -25.16,-18.86 -36.94,16.36 z"
     fill="#e6e7e8"
     id="shoulder_front_l" />
  <path
     d="m 647.139,477.676 c -1.81,36.62 -19.66,92 -35.91,116.85 -23.75,36.32 -52.45,31.62 -48.61,14.75 28.57,-40.35 31.7,-86.95 41.09,-101.05 22.77,-14.55 40.48,-50.5 43.43,-30.55 z"
     fill="#e6e7e8"
     id="trapezius_front_l" />
  <path
     d="m 718.2,639.885 c -33.02,-10.55 -161.43,41.49 -140.43,48.11 88.27,28.41 174.03,47.62 272.33,112.8 34.04,18.01 36.78,9.79 24.65,-23.5 -24.52,-76.81 -85.02,-110.81 -156.55,-137.41 z"
     fill="#e6e7e8"
     id="pectoral_l_2" />
  <path
     d="m 823.09,793.285 c 18.48,9.82 34.71,19.06 44.07,25.36 16.13,10.85 14.75,16.52 -4.43,12.28 -19.7,-4.35 -40.84,-4.31 -60.88,-3.13 -106.7,6.27 -195.16,44.22 -233.91,39.29 -13.71,1.76 -10.55,-154.88 11.6,-155.23 97.42,12.85 168.65,37.61 243.55,81.43 z"
     fill="#e6e7e8"
     id="biceps_l" />
  <path
     d="m 844.49,836.336 c 36.64,2.28 36.89,7.52 34.12,34.82 -11.62,41.8 -36.45,79.33 -74.46,87.01 -81.95,16.57 -193.95,-22.65 -208.39,-25.21 -19.46,-6.38 -43.4,-26.69 -12.57,-44.39 75.73,-36.27 217.9,-57.74 261.3,-52.23 z"
     fill="#e6e7e8"
     id="forearm_front_l" />
  <path
     d="m 691.279,989.776 c 14.3,11.554 25.3,64.364 6.6,64.364 -16.07,-1.12 -26.3,-12.13 -55.08,-15.35 -23.84,-2.66 -49.66,-0.44 -64.57,-2.8 -25.59,-12.66 -23.11,-82.254 0.82,-84.174 41.81,2.1 84.12,6.16 112.23,37.96 z"
     fill="#e6e7e8"
     id="abs_l_1" />
  <path
     d="m 698.24,1069.92 c -26.07,-17.59 -90.97,-26.19 -124.11,-16.81 -15.53,7.39 -15.18,76.51 -5.42,101.88 10.92,19.01 75.36,7.45 121.57,19.86 32.41,12.47 35.36,-85.04 7.96,-104.93 z"
     fill="#e6e7e8"
     id="abs_l_2" />
  <path
     d="m 696.54,1195.84 c -22.14,-13.34 -80.96,-17.4 -109.53,-14.3 -33.9,2.52 -26.03,101.83 -12.14,110.1 15.71,13.34 12.14,24.54 27.85,40.75 12.38,8.34 44.76,10.96 63.57,19.3 40.23,11.43 52.15,-146.56 30.25,-155.85 z"
     fill="#e6e7e8"
     id="abs_l_3" />
  <path
     d="m 672.299,1380.1 c -28.88,-16.57 -57.76,-27.99 -86.65,-24.76 -18.76,4.96 -21.76,15.41 -21.45,25.58 -2.52,81.47 -2.27,160.16 -2.48,239.31 1.65,28.89 32.18,52.82 52.81,10.73 43.47,-71.52 88.58,-237.11 57.77,-250.86 z"
     fill="#e6e7e8"
     id="abs_l_4" />
  <path
     d="m 261.63,983.305 c -15.84,-3.14 -14.5,15.59 -3.79,21.835 30.71,31.21 79.64,74.91 111.91,82.69 9.29,2.75 0.98,-29.05 4.2,-53.94 3.42,-26.49 14.66,-49.835 3.88,-47.185 -32.49,9.45 -78.51,6.41 -116.2,-3.4 z"
     fill="#e6e7e8"
     id="path39" />
  <path
     d="m 259.23,1021.91 c 32.9,31.99 71.44,67.51 107.16,80.45 11.87,1.41 3.48,55.75 7.32,98.53 3.84,42.77 17.12,105.06 6.08,96.95 -37.02,-19.4 -83.31,-95.85 -118.45,-230.07 -12.99,-42.2 -11.32,-48.28 -2.11,-45.86 z"
     fill="#e6e7e8"
     id="path40" />
  <path
     d="m 339.319,1282.03 c -22.62,-21.05 -26.08,-13.19 -27.33,23.56 -2.83,75.41 17.9,122.54 62.2,166.84 29.54,36.76 42.73,34.87 32.05,-11.31 -10.97,-55.83 0.04,-100.91 -66.92,-179.09 z"
     fill="#e6e7e8"
     id="obliques_r" />
  <path
     d="m 839.739,983.305 c 15.84,-3.14 14.5,15.59 3.79,21.835 -30.71,31.21 -79.64,74.91 -111.91,82.69 -9.29,2.75 -0.98,-29.05 -4.2,-53.94 -3.42,-26.49 -14.66,-49.835 -3.88,-47.185 32.49,9.45 78.51,6.41 116.2,-3.4 z"
     fill="#e6e7e8"
     id="path42" />
  <path
     d="m 842.139,1021.91 c -32.9,31.99 -71.44,67.51 -107.16,80.45 -11.87,1.41 -3.481,55.75 -7.321,98.53 -3.84,42.77 -17.129,105.06 -6.079,96.95 37.02,-19.4 83.309,-95.85 118.449,-230.07 12.99,-42.2 11.321,-48.28 2.111,-45.86 z"
     fill="#e6e7e8"
     id="path43" />
  <path
     d="m 762.05,1282.03 c 22.62,-21.05 26.08,-13.19 27.33,23.56 2.83,75.41 -17.91,122.54 -62.21,166.84 -29.53,36.76 -42.72,34.87 -32.04,-11.31 10.97,-55.83 -0.04,-100.91 66.92,-179.09 z"
     fill="#e6e7e8"
     id="obliques_l" />
  <path
     d="m 293.52,1485.5 c 6.11,-65.64 58.16,37.61 41.47,78.15 -7.13,23.6 -17.2,45.73 -21.4,70.81 -6.83,34.1 -29.3,24.14 -26.35,-18.12 3.86,-40.18 -0.8,-89.68 6.28,-130.84 z"
     fill="#e6e7e8"
     id="path45" />
  <path
     d="m 398.52,1564.85 c 80.74,137.32 78.23,188.78 24.68,436.97 -7.3,56.91 -15.52,94.24 -30.17,-5.48 -14.93,-141.39 -94.76,-248.96 -44.79,-424.17 9.45,-24.38 11.58,-76.18 50.28,-7.32 z"
     fill="#e6e7e8"
     id="quadriceps_r_1" />
  <path
     d="m 276.939,1726.45 c 10.246,-68.15 22.273,-70.38 36.08,-6.68 50.36,197.51 92.77,391.83 89.53,567.9 -7.97,52.72 -20.41,91.14 -64.14,29.39 -78.23,-166.31 -104.4,-360.17 -61.47,-590.61 z"
     fill="#e6e7e8"
     id="quadriceps_r_2" />
  <path
     d="m 477.379,1828 c 20.04,-59.24 32.956,-50.78 38.75,25.39 8.01,151.44 4.45,308.22 -14.7,454.32 -5.35,62.8 -80.18,24.05 -84.18,-72.16 -6.07,-109.73 23.34,-254.96 60.13,-407.55 z"
     fill="#e6e7e8"
     id="quadriceps_r_3" />
  <path
     d="m 349.79,2605.04 c 19.29,-91.15 67.57,-37.84 90.3,103.23 23.25,138.09 -30.82,286.88 38.48,573.62 9.78,34.5 -3.45,45.47 -11.83,48.7 -12.25,4.73 -29.47,-12.47 -31.89,-25.96 -45.89,-265.07 -163.67,-449.57 -85.06,-699.59 z"
     fill="#e6e7e8"
     id="shin_r_1" />
  <path
     d="m 473.07,2600.22 c -4.87,-62.25 22.74,-67.66 38.98,27.61 49.95,174.35 2.25,237.12 -13,347.51 -5.41,60.63 -22.19,59.01 -19.48,-21.11 -2.17,-118 16.78,-221.39 -6.5,-354.01 z"
     fill="#e6e7e8"
     id="shin_r_2" />
  <path
     d="m 816.92,1485.5 c -6.11,-65.64 -58.17,37.61 -41.48,78.15 7.14,23.6 17.21,45.73 21.41,70.81 6.82,34.1 29.3,24.14 26.34,-18.12 -3.86,-40.18 0.81,-89.68 -6.27,-130.84 z"
     fill="#e6e7e8"
     id="path51" />
  <path
     d="m 715.699,1564.85 c -80.73,137.32 -78.23,188.78 -24.68,436.97 7.3,56.91 15.52,94.24 30.17,-5.48 14.93,-141.39 94.76,-248.96 44.79,-424.17 -9.45,-24.38 -11.58,-76.18 -50.28,-7.32 z"
     fill="#e6e7e8"
     id="quadriceps_l_1" />
  <path
     d="m 837.28,1726.45 c -10.246,-68.15 -22.273,-70.38 -36.08,-6.68 -50.36,197.51 -92.77,391.83 -89.53,567.9 7.97,52.72 20.41,91.14 64.14,29.39 78.23,-166.31 104.4,-360.17 61.47,-590.61 z"
     fill="#e6e7e8"
     id="quadriceps_l_2" />
  <path
     d="m 636.84,1828 c -20.04,-59.24 -32.957,-50.78 -38.75,25.39 -8.01,151.44 -4.45,308.22 14.7,454.32 5.35,62.8 80.18,24.05 84.19,-72.16 6.06,-109.73 -23.35,-254.96 -60.14,-407.55 z"
     fill="#e6e7e8"
     id="quadriceps_l_3" />
  <path
     d="m 764.429,2605.04 c -19.29,-91.15 -67.57,-37.84 -90.3,103.23 -23.25,138.09 30.82,286.88 -38.48,573.62 -9.78,34.5 3.45,45.47 11.83,48.7 12.25,4.73 29.47,-12.47 31.89,-25.96 45.89,-265.07 163.67,-449.57 85.06,-699.59 z"
     fill="#e6e7e8"
     id="shin_l_1" />
  <path
     d="m 646.829,2600.22 c 4.87,-62.25 -22.74,-67.66 -38.98,27.61 -49.95,174.35 -2.26,237.12 12.99,347.51 5.42,60.63 22.2,59.01 19.49,-21.11 2.17,-118 -16.78,-221.39 6.5,-354.01 z"
     fill="#e6e7e8"
     id="shin_l_2" />
  <path
     d="m 1407.75,408.756 c 12.69,122.85 -14.33,184.83 -42.59,222.07 -12.17,15.533 -8.21,17.516 11.89,5.95 33.59,-21.07 52.2,-36.48 99.02,-39.02 19.47,-6.287 24.42,-15.21 14.85,-26.77 -19.81,-52.22 -19.78,-119.93 -41.56,-158.27 -8.26,-23.13 -50.19,-56.18 -41.61,-3.96 z"
     fill="#e6e7e8"
     id="path57" />
  <path
     d="m 1494.07,424.026 c 5.72,-20.15 18.77,36.48 41.61,40.02 30.73,34.567 47.32,71.317 49.77,110.25 -1.08,43.13 -5.98,40.36 -11.42,31.03 -13.98,-56.81 -81.24,-105.88 -79.96,-181.3 z"
     fill="#e6e7e8"
     id="path58" />
  <path
     d="m 1353.93,716.635 c -49.05,94.26 -26.96,170.91 29.36,244.47 24.89,19.63 84.3,30.5 72.61,2.18 -10.37,-29.09 -4.16,-68.35 -40.41,-113.44 -25.3,-31.47 -22.58,-81.36 -27,-125.7 -5.51,-35.68 -17.2,-30.62 -34.56,-7.51 z"
     fill="#e6e7e8"
     id="path59" />
  <path
     d="m 1399.95,689.375 c 5.94,-39.18 56.9,-33.17 76.98,-4.31 52.56,82.83 41.37,206.18 13.32,278.62 -8.74,19.06 -13.96,33.24 -25.84,-13.25 -16.97,-143.94 -45.32,-85.01 -56.94,-168.81 -2.68,-19.34 -7.36,-54.62 -7.52,-92.25 z"
     fill="#e6e7e8"
     id="path60" />
  <path
     d="m 1476.39,660.636 c -15.06,-28.92 -19.46,-49 50.71,-7.25 63.09,43.79 84.94,148.11 40.1,211.92 -42.81,51.76 -43.02,25.61 -38.97,-1.79 -4.28,-77.36 -10.83,-157.38 -51.84,-202.88 z"
     fill="#e6e7e8"
     id="path61" />
  <path
     d="m 1566.6,646.526 c -7.57,-41.38 40.42,-12.63 83.86,31.81 3.69,3.77 12.36,12.23 14.93,16.87 12.75,30.13 -5.65,83.18 -33.98,134.23 -12.04,24.45 -29.39,-5.32 -22.31,-22.34 -3.9,-121.22 -27.98,-101.02 -42.5,-160.57 z"
     fill="#e6e7e8"
     id="path62" />
  <path
     d="m 1382.84,1019.89 c 1.19,-65.065 90.2,-6.9 102.04,33.75 20.13,72.66 45.73,146.1 47.38,216.12 0.46,47.59 -14.12,46.67 -35.53,23.71 -31.84,-98.57 -60.41,-75.13 -83.82,-105.78 -38.81,-58.83 -34.85,-119.37 -30.07,-167.8 z"
     fill="#e6e7e8"
     id="path63" />
  <path
     d="m 1552.3,938.726 c -17.71,-61.35 -62.82,27.85 -55.57,82.084 4.02,57.75 32.42,86.32 40.08,165.06 8.81,27.66 26.73,27.96 31.89,-4.56 13.37,-56.54 6.68,-162.33 -16.4,-242.584 z"
     fill="#e6e7e8"
     id="path64" />
  <path
     d="m 1679.38,740.515 c 1.23,-62.67 47.55,24.52 57.42,41 11.57,15.25 1.6,30.57 -27.54,37.49 -67.47,14.21 -63.95,7.87 -47.6,-28.62 5.44,-12.16 16.49,-29.98 17.72,-49.87 z"
     fill="#e6e7e8"
     id="path65" />
  <path
     d="m 1744.96,816.615 c -19.7,9.71 -39.02,14.63 -75.92,17.45 -37.02,3.95 -19.22,34.25 -3.56,54.22 68.78,75.47 94.5,46.55 104.56,30.82 20.95,-42.71 -8.3,-115.35 -25.08,-102.49 z"
     fill="#e6e7e8"
     id="path66" />
  <path
     d="m 1305.8,901.856 c -4.29,-23.36 -26.13,-38.56 -20,19.02 0.67,44.7 11.33,74.38 31.99,104.074 19.71,26.71 29.73,-16.97 17,-43.034 -16.33,-26.687 -26,-53.374 -28.99,-80.06 z"
     fill="#e6e7e8"
     id="path67" />
  <path
     d="m 1423.22,1501.65 c 17,-35.38 24.27,-23.07 34.31,10.92 19.02,46.84 37.19,73.05 65.42,108.01 24.33,24.41 6.77,50.01 -6.16,61.98 -56.44,51.3 -80.15,122.62 -92.01,201.19 -6.78,18.33 -15.11,29.51 -34.31,-9.36 -73,-78.65 -67.49,-199.96 32.75,-372.74 z"
     fill="#e6e7e8"
     id="path68" />
  <path
     d="m 1760.79,974.786 c -12.85,2.18 -25.82,2.44 -20.86,34.604 -0.91,27.65 -3.77,55.44 11.69,67.3 20.73,-0.53 36.74,-12.39 38.78,-29.09 3.04,-25.2 -11.04,-85.194 -29.61,-72.814 z"
     fill="#e6e7e8"
     id="path69" />
  <path
     d="m 1748.31,1159.44 c 24.57,-49.9 33.18,-64.44 34.97,-16.15 3.23,31.95 7.53,50.98 -4.3,71.62 -8.84,19.25 -50.71,18.26 -46.81,-1.08 2.24,-18.13 6.73,-36.26 16.14,-54.39 z"
     fill="#e6e7e8"
     id="path70" />
  <path
     d="m 1731.02,1263.74 c 0,-28.86 51.39,-29.78 58.48,-1.52 6.15,31.73 2.6,53.55 -7.75,73.51 -15.65,32.08 -37.35,13.39 -40.13,-1.52 -7.32,-24 -12.37,-47.23 -10.6,-70.47 z"
     fill="#e6e7e8"
     id="path71" />
  <path
     d="m 1744.05,1393.57 c 5.41,-30.84 34.56,-31.21 37.95,4.96 5.94,80.48 -33.31,222.62 -38.5,211.43 -4.59,-4.33 -9.17,-9.82 -13.76,-51.2 0,-55.06 1.03,-110.13 14.31,-165.19 z"
     fill="#e6e7e8"
     id="path72" />
  <path
     d="m 1704.53,969.216 c -17.92,-19.85 -25.82,1.49 -34.11,6.97 -11.9,7.86 -25.86,12.92 -20.06,19.71 15.97,23.264 30.52,48.224 27.04,64.174 -3.94,18.09 -55.95,14.28 -57.62,38.41 -3.6,47.71 0.5,94.83 -7.25,140.16 -5.51,16.42 -0.74,26.91 9.56,35.62 30.44,35.6 46.88,71.63 61.49,118.31 11.61,34.87 16.11,30.97 13.49,-11.7 -1.75,-57.22 -27.15,-132.7 -13.49,-188.14 7.85,-30.28 35.26,-46.31 37.77,-83.71 7.02,-64.97 6.2,-117.564 -16.82,-139.804 z"
     fill="#e6e7e8"
     id="path73" />
  <path
     d="m 1607.87,993.236 c -5.88,12.064 5.87,39.564 7.11,73.594 2.22,16.53 51.42,-5.26 51.58,-11.87 0.59,-22.75 -48.02,-85.264 -58.69,-61.724 z"
     fill="#e6e7e8"
     id="path74" />
  <path
     d="m 1627.39,897.616 c -11.29,-17.52 -12.94,-14.18 -25.7,6.77 -13.22,19.1 -13.37,42.27 -5.41,59.11 14.13,27.08 62.51,6.77 70.78,-4.06 15.03,-10.22 7.06,-21.36 -3.61,-26.62 -14.2,-7.33 -29.08,-19.44 -36.06,-35.2 z"
     fill="#e6e7e8"
     id="path75" />
  <path
     d="m 1523.18,1390.58 c -9.48,-9.02 -20.36,6.42 -26.46,19.19 -6.45,13.51 -26.21,9.58 -22.84,18 46.46,169.59 143.22,207.98 231.21,374.2 12.55,19.58 70.07,6.12 52.33,-22.95 -100.89,-138.47 -137.26,-308.46 -234.24,-388.44 z"
     fill="#e6e7e8"
     id="path76" />
  <path
     d="m 1567.4,1264.02 c -24.42,-31.78 -26.19,-16.04 -23.85,21.56 0.51,20.03 -0.52,25.42 -6.93,41.6 -14.11,16.43 -14.36,39.79 11.54,68.54 53.81,52.59 90.17,130.07 125.42,209.5 17.5,35.07 35.23,54.69 17.71,-21.57 -25.07,-108.33 -25.83,-184.18 -123.89,-319.63 z"
     fill="#e6e7e8"
     id="path77" />
  <path
     d="m 1405.82,1962.22 c 3.42,-33.21 41.57,-44.62 62.91,55.05 11.29,59.13 19.43,175.7 17.3,235.92 -5.89,55.45 -14.54,108.14 -33.02,150.99 -14.7,27.39 -28.34,44.24 -34.61,-12.58 -18.02,-143.65 -23.92,-285.73 -12.58,-429.38 z"
     fill="#e6e7e8"
     id="path78" />
  <path
     d="m 1606.42,1808.54 c 3.14,-30.46 9.97,-44.59 24.77,-34.25 21.63,15.11 52.38,68.85 48.36,87.65 -0.21,68.5 -5.23,143.18 15.98,167.03 17.1,26.96 -66.48,345.45 -117.29,364.05 -43.96,14.38 -46.37,-43.95 -46.19,-85.4 -20.65,-157.27 50.88,-331.42 74.37,-499.08 z"
     fill="#e6e7e8"
     id="path79" />
  <path
     d="m 1486.63,2650.83 c 15.73,-33.3 29.75,-51.25 31.85,38.22 4.67,123.98 -37.79,216.11 -28.03,394.87 0.43,63.68 -4.24,90.43 -14.01,22.92 -15.94,-135.42 -21.47,-279.77 10.19,-456.01 z"
     fill="#e6e7e8"
     id="path80" />
  <path
     d="m 1342.04,2653.38 c 22.93,-46.28 30.57,-39.91 22.93,19.11 -18.8,89.74 -12.64,181.99 2.55,275.13 16.98,82.39 -20.81,59.45 -44.59,17.84 -39.69,-104.03 -36.29,-208.06 19.11,-312.08 z"
     fill="#e6e7e8"
     id="path81" />
  <path
     d="m 1399.64,2603.07 c 35.24,-67.97 82.35,6.47 66.89,55.02 -25.97,164.7 -33.8,342.65 15.1,562.07 12.99,49.74 -34.08,56.13 -57.17,-55.02 -37.48,-195.09 -88.36,-393.73 -24.82,-562.07 z"
     fill="#e6e7e8"
     id="path82" />
  <path
     d="m 2250.95,635.595 c 12.47,-6.29 20.56,-7.18 31.5,-2.72 19.52,7.93 38.35,29.56 45.29,47.02 5.53,13.92 1.78,17.66 -11.8,24.75 -81.66,46.53 -130.32,113.25 -163.98,189.15 -7.66,21.34 -29.32,42.7 -32.99,-20.02 -9.59,-41.03 -8.74,-91.77 16.84,-139.13 23.28,-43.11 68.6,-84.11 115.14,-99.05 z"
     fill="#e6e7e8"
     id="shoulder_back_l" />
  <path
     d="m 2229.34,804.997 c 1.45,-15.93 55.5,-75.471 77.59,-65.331 22.81,5.07 13.03,68.72 31.5,109.65 7.97,32.95 -50.33,47.431 -70.61,33.671 -23.23,-14.71 -41.82,-57.38 -38.48,-77.99 z"
     fill="#e6e7e8"
     id="lats_l" />
  <path
     d="m 2139.79,936.265 c 35.47,-43.79 36.78,-37.03 49.92,-10.12 13.18,18.76 46.16,101.915 29.2,180.555 -8.79,39.56 -17.58,79.13 -26.37,118.7 -10.49,35.99 -20.97,59.75 -31.45,-2.03 -9.81,-28.07 -36.18,-47.01 -30.77,-84.2 1.68,-27.39 -21.85,-31.67 -32.13,-1.02 -3.38,22.66 -6.76,45.31 -10.14,67.97 -14.21,51.4 -21.72,49.74 -20.29,-4.05 -6.6,-137.23 23.45,-216.245 72.03,-265.805 z"
     fill="#e6e7e8"
     id="triceps_l" />
  <path
     d="m 2247.88,952.626 c -3.13,-23.7 -30.19,-66 24.07,-46.6 23.39,6.84 59.54,-2.01 82.03,-20.86 10.45,-14.56 20.9,-13.924 31.35,1.91 50.77,44.63 87.66,113.044 120.67,188.124 17.9,23.43 15.96,43.39 6.65,61.76 -20.77,51.29 -42.43,100.59 -70.31,135.87 -20.27,22.08 -57.82,21.89 -78.08,-9.22 -44.83,-64.39 -103.4,-164.03 -116.38,-310.984 z"
     fill="#e6e7e8"
     id="path86" />
  <path
     d="m 2311.84,627.437 c -0.47,-14.6 142.79,-42.68 221.81,-47.08 30.74,-3.13 38.1,1.96 39.53,24.06 4.67,147.28 7.05,293.46 0,435.153 -1.84,43.93 -11.84,111.55 -37.71,42.63 -32.34,-79.61 -111.63,-197.443 -178.98,-250.223 -10.25,-8.18 -21.15,-28.941 -17.33,-45.081 5.5,-26.44 45.69,-50.319 48.91,-70.229 2.61,-17.86 -8.45,-19.05 -24.83,-30.74 -19.04,-17.08 -53.23,-38.27 -51.4,-58.49 z"
     fill="#e6e7e8"
     id="trapezius_back_l_2" />
  <path
     d="m 2376.19,580.335 c 52.87,-35.45 105.73,-40.19 112.21,-59.9 18.09,-73.75 7.12,-122.41 16.46,-131.03 7.56,-14.1 46.05,-10.97 53.11,-3 16.71,26.21 2.74,92.85 5.24,138.52 0,19.97 3.74,38.44 -25.44,43.43 -35.41,2.5 -80.54,5.74 -141.38,20.22 -39.89,12.97 -44.63,7.23 -20.2,-8.24 z"
     fill="#e6e7e8"
     id="trapezius_back_l_1" />
  <path
     d="m 2424.78,1307.72 c -20.64,4.5 -26.06,58.86 8.68,68.56 33.37,14.5 65.53,33.2 93.37,66.87 21.98,27.19 29.84,17.92 31.54,-24.06 8.69,-63.04 2.9,-176.03 2.73,-275.74 -3.23,-19.54 -17.55,-14.32 -24.24,-3.92 -32.09,51.59 -54.64,157.57 -112.08,168.29 z"
     fill="#e6e7e8"
     id="lower_back_l" />
  <path
     d="m 2348.22,1316.42 c 9.13,-13.05 46.29,-18.92 44.99,0 -2.4,16.53 1.08,35.02 4.56,51.55 1.09,15.01 -38.24,50.24 -46.94,26.1 -6.52,-15.39 -11.08,-43.13 -2.61,-77.65 z"
     fill="#e6e7e8"
     id="path90" />
  <path
     d="m 2496.97,1496.1 c -57.88,22.91 -80.43,87.25 -119.13,129.36 -18.52,19.87 -65.3,81.18 -66.64,-5.05 0.52,-100.86 13.88,-201.33 110.05,-213.24 28.5,-3.14 134.48,60.52 75.72,88.93 z"
     fill="#e6e7e8"
     id="glutes_l_1" />
  <path
     d="m 2516.47,1510.44 c 50.54,-25.05 56.8,15.65 55.02,41.6 -0.9,81.4 -1.8,162.81 -2.69,244.22 -4.47,29.97 -14.31,66.65 -87.22,72.47 -107.35,12.52 -191.89,-154.77 -123.46,-194.58 60.84,-23.71 101.54,-141.35 158.35,-163.71 z"
     fill="#e6e7e8"
     id="glutes_l_2" />
  <path
     d="m 2129.39,1403.43 c 4.53,-42.81 16.65,-33.36 26.32,-53.8 16.47,-34.81 46.5,-57.21 55.89,-11.68 33.94,126.17 -52.99,248.57 -11.49,390.22 6.78,26.25 -2.36,97.62 -22.1,12.38 -16.21,-112.37 -47.44,-216.78 -48.62,-337.12 z"
     fill="#e6e7e8"
     id="path93" />
  <path
     d="m 2049.82,1371.57 c 15.7,-47.78 41.48,-31.56 63.66,69.02 6.03,28.37 6.23,58.36 13.9,110.68 9.56,65.17 27.31,155.75 42.67,213.18 8.4,42.33 -8.69,57.67 -38.89,-15.05 -41.39,-137.53 -109.84,-262.36 -81.34,-377.83 z"
     fill="#e6e7e8"
     id="path94" />
  <path
     d="m 2922.84,635.595 c -12.47,-6.29 -20.56,-7.18 -31.5,-2.72 -19.52,7.93 -38.35,29.56 -45.28,47.02 -5.53,13.92 -1.79,17.66 11.79,24.75 81.66,46.53 130.32,113.25 163.98,189.15 7.66,21.34 29.33,42.7 32.99,-20.02 9.6,-41.03 8.74,-91.77 -16.84,-139.13 -23.28,-43.11 -68.6,-84.11 -115.14,-99.05 z"
     fill="#e6e7e8"
     id="shoulder_back_r" />
  <path
     d="m 2944.45,804.997 c -1.44,-15.93 -55.49,-75.471 -77.59,-65.331 -22.81,5.07 -13.03,68.72 -31.5,109.65 -7.97,32.95 50.34,47.431 70.62,33.671 23.22,-14.71 41.81,-57.38 38.47,-77.99 z"
     fill="#e6e7e8"
     id="lats_r" />
  <path
     d="m 3034.01,936.265 c -35.48,-43.79 -36.79,-37.03 -49.93,-10.12 -13.18,18.76 -46.16,101.915 -29.2,180.555 8.79,39.56 17.58,79.13 26.37,118.7 10.49,35.99 20.98,59.75 31.45,-2.03 9.81,-28.07 36.18,-47.01 30.77,-84.2 -1.67,-27.39 21.85,-31.67 32.13,-1.02 3.38,22.66 6.76,45.31 10.15,67.97 14.2,51.4 21.71,49.74 20.29,-4.05 6.59,-137.23 -23.45,-216.245 -72.03,-265.805 z"
     fill="#e6e7e8"
     id="triceps_r" />
  <path
     d="m 2925.92,952.626 c 3.13,-23.7 30.18,-66 -24.07,-46.6 -23.4,6.84 -59.55,-2.01 -82.04,-20.86 -10.45,-14.56 -20.9,-13.924 -31.35,1.91 -50.76,44.63 -87.65,113.044 -120.67,188.124 -17.89,23.43 -15.96,43.39 -6.65,61.76 20.77,51.29 42.43,100.59 70.31,135.87 20.27,22.08 57.82,21.89 78.09,-9.22 44.82,-64.39 103.39,-164.03 116.38,-310.984 z"
     fill="#e6e7e8"
     id="path98" />
  <path
     d="m 2861.95,627.437 c 0.46,-14.6 -140.03,-42.68 -217.52,-47.08 -30.15,-3.13 -37.37,1.96 -38.77,24.06 -4.59,147.28 -6.92,293.46 0,435.153 1.8,43.93 11.61,111.55 36.98,42.63 31.71,-79.61 109.48,-197.443 175.52,-250.223 10.05,-8.18 20.74,-28.941 17,-45.081 -5.4,-26.44 -44.8,-50.319 -47.97,-70.229 -2.56,-17.86 8.29,-19.05 24.36,-30.74 18.67,-17.08 52.2,-38.27 50.4,-58.49 z"
     fill="#e6e7e8"
     id="trapezius_back_r_2" />
  <path
     d="m 2797.6,580.335 c -52.86,-35.45 -105.72,-40.19 -112.21,-59.9 -18.09,-73.75 -7.12,-122.41 -16.46,-131.03 -7.56,-14.1 -46.05,-10.97 -53.11,-3 -16.7,26.21 -2.74,92.85 -5.23,138.52 0,19.97 -3.74,38.44 25.43,43.43 35.41,2.5 80.54,5.74 141.38,20.22 39.9,12.97 44.64,7.23 20.2,-8.24 z"
     fill="#e6e7e8"
     id="trapezius_back_r_1" />
  <path
     d="m 2749.14,1307.72 c 20.48,4.5 25.86,58.86 -8.61,68.56 -33.12,14.5 -65.04,33.2 -92.66,66.87 -21.82,27.19 -29.62,17.92 -31.3,-24.06 -8.63,-63.04 -2.88,-176.03 -2.71,-275.74 3.21,-19.54 17.41,-14.32 24.06,-3.92 31.84,51.59 54.22,157.57 111.22,168.29 z"
     fill="#e6e7e8"
     id="lower_back_r" />
  <path
     d="m 2825.57,1316.42 c -9.13,-13.05 -46.28,-18.92 -44.98,0 2.39,16.53 -1.09,35.02 -4.57,51.55 -1.08,15.01 38.25,50.24 46.94,26.1 6.52,-15.39 11.09,-43.13 2.61,-77.65 z"
     fill="#e6e7e8"
     id="path102" />
  <path
     d="m 2676.82,1496.1 c 57.88,22.91 80.43,87.25 119.14,129.36 18.51,19.87 65.29,81.18 66.64,-5.05 -0.53,-100.86 -13.89,-201.33 -110.06,-213.24 -28.5,-3.14 -134.48,60.52 -75.72,88.93 z"
     fill="#e6e7e8"
     id="glutes_r_1" />
  <path
     d="m 2657.33,1510.44 c -50.55,-25.05 -56.81,15.65 -55.02,41.6 0.89,81.4 1.79,162.81 2.68,244.22 4.47,29.97 14.31,66.65 87.22,72.47 107.36,12.52 191.9,-154.77 123.46,-194.58 -60.83,-23.71 -101.54,-141.35 -158.34,-163.71 z"
     fill="#e6e7e8"
     id="glutes_r_2" />
  <path
     d="m 3044.41,1403.43 c -4.53,-42.81 -16.66,-33.36 -26.33,-53.8 -16.46,-34.81 -46.5,-57.21 -55.89,-11.68 -33.94,126.17 52.99,248.57 11.49,390.22 -6.77,26.25 2.36,97.62 22.1,12.38 16.21,-112.37 47.45,-216.78 48.63,-337.12 z"
     fill="#e6e7e8"
     id="path105" />
  <path
     d="m 3123.97,1371.57 c -15.69,-47.78 -41.48,-31.56 -63.65,69.02 -6.04,28.37 -6.24,58.36 -13.91,110.68 -9.56,65.17 -27.31,155.75 -42.67,213.18 -8.4,42.33 8.69,57.67 38.9,-15.05 41.38,-137.53 109.83,-262.36 81.33,-377.83 z"
     fill="#e6e7e8"
     id="path106" />
  <path
     d="m 2323.34,1880.17 c 2.03,-33.67 26.36,-2.38 54.1,14.09 24.47,14.53 54.46,4.22 51.36,45.06 5.51,115.57 21.2,246.51 16.52,346.72 -1.98,66.17 -24.64,103.82 -37.33,110.29 -12.69,6.47 -25.6,-14.76 -38.68,-55.9 -33.46,-135.56 -61.61,-289.21 -45.97,-460.26 z"
     fill="#e6e7e8"
     id="hamstrings_l_1" />
  <path
     d="m 2452.42,1917.38 c 10.38,1.11 15.1,1.33 29.9,2.01 14.8,0.67 28.22,-6.74 29.01,6.17 25.9,160.85 31.51,310.55 10.48,441.09 -4.63,38.86 -16.24,40.89 -25.13,36.27 -8.89,-4.62 -18.46,-31.52 -29.22,-97.42 -12.61,-167.61 -22.79,-319.92 -21.26,-370.13 0.24,-7.88 -0.55,-18.89 6.22,-17.99 z"
     fill="#e6e7e8"
     id="hamstrings_l_2" />
  <path
     d="m 2400.4,2579.61 c 27.16,-62.77 43.94,-49.57 43.14,32.39 -6.39,88.76 -12.78,184.71 -4.79,280.66 5.19,47.98 -66.31,70.77 -77.89,-25.18 -5.39,-105.25 6.59,-201.81 39.54,-287.87 z"
     fill="#e6e7e8"
     id="calves_l_1" />
  <path
     d="m 2470.66,2603.07 c 14.44,-81.04 33.99,-52.78 55.88,25.14 29.02,122.92 40.2,238.08 12.1,336.16 -28.87,102.13 -75.43,5.9 -80.08,-45.62 -6.83,-113.92 -3.42,-219.15 12.1,-315.68 z"
     fill="#e6e7e8"
     id="calves_l_2" />
  <path
     d="m 2849.24,1880.17 c -2.03,-33.67 -26.36,-2.38 -54.09,14.09 -24.48,14.53 -54.47,4.22 -51.37,45.06 -5.5,115.57 -21.2,246.51 -16.52,346.72 1.98,66.17 24.64,103.82 37.33,110.29 12.69,6.47 25.6,-14.76 38.68,-55.9 33.46,-135.56 61.61,-289.21 45.97,-460.26 z"
     fill="#e6e7e8"
     id="hamstrings_r_1" />
  <path
     d="m 2720.16,1917.38 c -10.38,1.11 -15.1,1.33 -29.9,2.01 -14.8,0.67 -28.21,-6.74 -29.01,6.17 -25.89,160.85 -31.51,310.55 -10.48,441.09 4.64,38.86 16.24,40.89 25.13,36.27 8.89,-4.62 18.46,-31.52 29.22,-97.42 12.61,-167.61 22.79,-319.92 21.26,-370.13 -0.24,-7.88 0.55,-18.89 -6.22,-17.99 z"
     fill="#e6e7e8"
     id="hamstrings_r_2" />
  <path
     d="m 2772.18,2579.61 c -27.16,-62.77 -43.94,-49.57 -43.14,32.39 6.39,88.76 12.78,184.71 4.79,280.66 -5.19,47.98 66.31,70.77 77.89,-25.18 5.39,-105.25 -6.59,-201.81 -39.54,-287.87 z"
     fill="#e6e7e8"
     id="calves_r_1" />
  <path
     d="m 2701.92,2603.07 c -14.43,-81.04 -33.99,-52.78 -55.87,25.14 -29.03,122.92 -40.21,238.08 -12.11,336.16 28.87,102.13 75.43,5.9 80.08,-45.62 6.83,-113.92 3.42,-219.15 -12.1,-315.68 z"
     fill="#e6e7e8"
     id="calves_r_2"/>
</svg>
